<?xml version="1.0" encoding="utf-8" standalone="no"?>
<!DOCTYPE svg PUBLIC "-//W3C//DTD SVG 1.1//EN"
  "http://www.w3.org/Graphics/SVG/1.1/DTD/svg11.dtd">
<!-- Created with matplotlib (http://matplotlib.org/) -->
<svg height="345pt" version="1.1" viewBox="0 0 460 345" width="460pt" xmlns="http://www.w3.org/2000/svg" xmlns:xlink="http://www.w3.org/1999/xlink">
 <defs>
  <style type="text/css">
*{stroke-linecap:butt;stroke-linejoin:round;}
  </style>
 </defs>
 <g id="figure_1">
  <g id="patch_1">
   <path d="M 0 345.6 
L 460.8 345.6 
L 460.8 0 
L 0 0 
z
" style="fill:#ffffff;"/>
  </g>
  <g id="axes_1">
   <g id="patch_2">
    <path d="M 57.6 276.48 
L 414.72 276.48 
L 414.72 41.472 
L 57.6 41.472 
z
" style="fill:#e5e5e5;"/>
   </g>
   <g id="matplotlib.axis_1">
    <g id="xtick_1">
     <g id="line2d_1">
      <path clip-path="url(#p634852e62c)" d="M 102.171217 276.48 
L 102.171217 41.472 
" style="fill:none;stroke:#ffffff;stroke-linecap:square;stroke-width:0.8;"/>
     </g>
     <g id="line2d_2">
      <defs>
       <path d="M 0 0 
L 0 3.5 
" id="m280755b8df" style="stroke:#555555;stroke-width:0.8;"/>
      </defs>
      <g>
       <use style="fill:#555555;stroke:#555555;stroke-width:0.8;" x="102.171217" xlink:href="#m280755b8df" y="276.48"/>
      </g>
     </g>
     <g id="text_1">
      <!-- 2003 -->
      <defs>
       <path d="M 19.1875 8.296875 
L 53.609375 8.296875 
L 53.609375 0 
L 7.328125 0 
L 7.328125 8.296875 
Q 12.9375 14.109375 22.625 23.890625 
Q 32.328125 33.6875 34.8125 36.53125 
Q 39.546875 41.84375 41.421875 45.53125 
Q 43.3125 49.21875 43.3125 52.78125 
Q 43.3125 58.59375 39.234375 62.25 
Q 35.15625 65.921875 28.609375 65.921875 
Q 23.96875 65.921875 18.8125 64.3125 
Q 13.671875 62.703125 7.8125 59.421875 
L 7.8125 69.390625 
Q 13.765625 71.78125 18.9375 73 
Q 24.125 74.21875 28.421875 74.21875 
Q 39.75 74.21875 46.484375 68.546875 
Q 53.21875 62.890625 53.21875 53.421875 
Q 53.21875 48.921875 51.53125 44.890625 
Q 49.859375 40.875 45.40625 35.40625 
Q 44.1875 33.984375 37.640625 27.21875 
Q 31.109375 20.453125 19.1875 8.296875 
z
" id="DejaVuSans-32"/>
       <path d="M 31.78125 66.40625 
Q 24.171875 66.40625 20.328125 58.90625 
Q 16.5 51.421875 16.5 36.375 
Q 16.5 21.390625 20.328125 13.890625 
Q 24.171875 6.390625 31.78125 6.390625 
Q 39.453125 6.390625 43.28125 13.890625 
Q 47.125 21.390625 47.125 36.375 
Q 47.125 51.421875 43.28125 58.90625 
Q 39.453125 66.40625 31.78125 66.40625 
z
M 31.78125 74.21875 
Q 44.046875 74.21875 50.515625 64.515625 
Q 56.984375 54.828125 56.984375 36.375 
Q 56.984375 17.96875 50.515625 8.265625 
Q 44.046875 -1.421875 31.78125 -1.421875 
Q 19.53125 -1.421875 13.0625 8.265625 
Q 6.59375 17.96875 6.59375 36.375 
Q 6.59375 54.828125 13.0625 64.515625 
Q 19.53125 74.21875 31.78125 74.21875 
z
" id="DejaVuSans-30"/>
       <path d="M 40.578125 39.3125 
Q 47.65625 37.796875 51.625 33 
Q 55.609375 28.21875 55.609375 21.1875 
Q 55.609375 10.40625 48.1875 4.484375 
Q 40.765625 -1.421875 27.09375 -1.421875 
Q 22.515625 -1.421875 17.65625 -0.515625 
Q 12.796875 0.390625 7.625 2.203125 
L 7.625 11.71875 
Q 11.71875 9.328125 16.59375 8.109375 
Q 21.484375 6.890625 26.8125 6.890625 
Q 36.078125 6.890625 40.9375 10.546875 
Q 45.796875 14.203125 45.796875 21.1875 
Q 45.796875 27.640625 41.28125 31.265625 
Q 36.765625 34.90625 28.71875 34.90625 
L 20.21875 34.90625 
L 20.21875 43.015625 
L 29.109375 43.015625 
Q 36.375 43.015625 40.234375 45.921875 
Q 44.09375 48.828125 44.09375 54.296875 
Q 44.09375 59.90625 40.109375 62.90625 
Q 36.140625 65.921875 28.71875 65.921875 
Q 24.65625 65.921875 20.015625 65.03125 
Q 15.375 64.15625 9.8125 62.3125 
L 9.8125 71.09375 
Q 15.4375 72.65625 20.34375 73.4375 
Q 25.25 74.21875 29.59375 74.21875 
Q 40.828125 74.21875 47.359375 69.109375 
Q 53.90625 64.015625 53.90625 55.328125 
Q 53.90625 49.265625 50.4375 45.09375 
Q 46.96875 40.921875 40.578125 39.3125 
z
" id="DejaVuSans-33"/>
      </defs>
      <g style="fill:#555555;" transform="translate(79.091027 302.78544)rotate(-30)scale(0.1 -0.1)">
       <use xlink:href="#DejaVuSans-32"/>
       <use x="63.623047" xlink:href="#DejaVuSans-30"/>
       <use x="127.246094" xlink:href="#DejaVuSans-30"/>
       <use x="190.869141" xlink:href="#DejaVuSans-33"/>
      </g>
     </g>
    </g>
    <g id="xtick_2">
     <g id="line2d_3">
      <path clip-path="url(#p634852e62c)" d="M 146.864715 276.48 
L 146.864715 41.472 
" style="fill:none;stroke:#ffffff;stroke-linecap:square;stroke-width:0.8;"/>
     </g>
     <g id="line2d_4">
      <g>
       <use style="fill:#555555;stroke:#555555;stroke-width:0.8;" x="146.864715" xlink:href="#m280755b8df" y="276.48"/>
      </g>
     </g>
     <g id="text_2">
      <!-- 2005 -->
      <defs>
       <path d="M 10.796875 72.90625 
L 49.515625 72.90625 
L 49.515625 64.59375 
L 19.828125 64.59375 
L 19.828125 46.734375 
Q 21.96875 47.46875 24.109375 47.828125 
Q 26.265625 48.1875 28.421875 48.1875 
Q 40.625 48.1875 47.75 41.5 
Q 54.890625 34.8125 54.890625 23.390625 
Q 54.890625 11.625 47.5625 5.09375 
Q 40.234375 -1.421875 26.90625 -1.421875 
Q 22.3125 -1.421875 17.546875 -0.640625 
Q 12.796875 0.140625 7.71875 1.703125 
L 7.71875 11.625 
Q 12.109375 9.234375 16.796875 8.0625 
Q 21.484375 6.890625 26.703125 6.890625 
Q 35.15625 6.890625 40.078125 11.328125 
Q 45.015625 15.765625 45.015625 23.390625 
Q 45.015625 31 40.078125 35.4375 
Q 35.15625 39.890625 26.703125 39.890625 
Q 22.75 39.890625 18.8125 39.015625 
Q 14.890625 38.140625 10.796875 36.28125 
z
" id="DejaVuSans-35"/>
      </defs>
      <g style="fill:#555555;" transform="translate(123.784525 302.78544)rotate(-30)scale(0.1 -0.1)">
       <use xlink:href="#DejaVuSans-32"/>
       <use x="63.623047" xlink:href="#DejaVuSans-30"/>
       <use x="127.246094" xlink:href="#DejaVuSans-30"/>
       <use x="190.869141" xlink:href="#DejaVuSans-35"/>
      </g>
     </g>
    </g>
    <g id="xtick_3">
     <g id="line2d_5">
      <path clip-path="url(#p634852e62c)" d="M 191.497072 276.48 
L 191.497072 41.472 
" style="fill:none;stroke:#ffffff;stroke-linecap:square;stroke-width:0.8;"/>
     </g>
     <g id="line2d_6">
      <g>
       <use style="fill:#555555;stroke:#555555;stroke-width:0.8;" x="191.497072" xlink:href="#m280755b8df" y="276.48"/>
      </g>
     </g>
     <g id="text_3">
      <!-- 2007 -->
      <defs>
       <path d="M 8.203125 72.90625 
L 55.078125 72.90625 
L 55.078125 68.703125 
L 28.609375 0 
L 18.3125 0 
L 43.21875 64.59375 
L 8.203125 64.59375 
z
" id="DejaVuSans-37"/>
      </defs>
      <g style="fill:#555555;" transform="translate(168.416882 302.78544)rotate(-30)scale(0.1 -0.1)">
       <use xlink:href="#DejaVuSans-32"/>
       <use x="63.623047" xlink:href="#DejaVuSans-30"/>
       <use x="127.246094" xlink:href="#DejaVuSans-30"/>
       <use x="190.869141" xlink:href="#DejaVuSans-37"/>
      </g>
     </g>
    </g>
    <g id="xtick_4">
     <g id="line2d_7">
      <path clip-path="url(#p634852e62c)" d="M 236.19057 276.48 
L 236.19057 41.472 
" style="fill:none;stroke:#ffffff;stroke-linecap:square;stroke-width:0.8;"/>
     </g>
     <g id="line2d_8">
      <g>
       <use style="fill:#555555;stroke:#555555;stroke-width:0.8;" x="236.19057" xlink:href="#m280755b8df" y="276.48"/>
      </g>
     </g>
     <g id="text_4">
      <!-- 2009 -->
      <defs>
       <path d="M 10.984375 1.515625 
L 10.984375 10.5 
Q 14.703125 8.734375 18.5 7.8125 
Q 22.3125 6.890625 25.984375 6.890625 
Q 35.75 6.890625 40.890625 13.453125 
Q 46.046875 20.015625 46.78125 33.40625 
Q 43.953125 29.203125 39.59375 26.953125 
Q 35.25 24.703125 29.984375 24.703125 
Q 19.046875 24.703125 12.671875 31.3125 
Q 6.296875 37.9375 6.296875 49.421875 
Q 6.296875 60.640625 12.9375 67.421875 
Q 19.578125 74.21875 30.609375 74.21875 
Q 43.265625 74.21875 49.921875 64.515625 
Q 56.59375 54.828125 56.59375 36.375 
Q 56.59375 19.140625 48.40625 8.859375 
Q 40.234375 -1.421875 26.421875 -1.421875 
Q 22.703125 -1.421875 18.890625 -0.6875 
Q 15.09375 0.046875 10.984375 1.515625 
z
M 30.609375 32.421875 
Q 37.25 32.421875 41.125 36.953125 
Q 45.015625 41.5 45.015625 49.421875 
Q 45.015625 57.28125 41.125 61.84375 
Q 37.25 66.40625 30.609375 66.40625 
Q 23.96875 66.40625 20.09375 61.84375 
Q 16.21875 57.28125 16.21875 49.421875 
Q 16.21875 41.5 20.09375 36.953125 
Q 23.96875 32.421875 30.609375 32.421875 
z
" id="DejaVuSans-39"/>
      </defs>
      <g style="fill:#555555;" transform="translate(213.11038 302.78544)rotate(-30)scale(0.1 -0.1)">
       <use xlink:href="#DejaVuSans-32"/>
       <use x="63.623047" xlink:href="#DejaVuSans-30"/>
       <use x="127.246094" xlink:href="#DejaVuSans-30"/>
       <use x="190.869141" xlink:href="#DejaVuSans-39"/>
      </g>
     </g>
    </g>
    <g id="xtick_5">
     <g id="line2d_9">
      <path clip-path="url(#p634852e62c)" d="M 280.822928 276.48 
L 280.822928 41.472 
" style="fill:none;stroke:#ffffff;stroke-linecap:square;stroke-width:0.8;"/>
     </g>
     <g id="line2d_10">
      <g>
       <use style="fill:#555555;stroke:#555555;stroke-width:0.8;" x="280.822928" xlink:href="#m280755b8df" y="276.48"/>
      </g>
     </g>
     <g id="text_5">
      <!-- 2011 -->
      <defs>
       <path d="M 12.40625 8.296875 
L 28.515625 8.296875 
L 28.515625 63.921875 
L 10.984375 60.40625 
L 10.984375 69.390625 
L 28.421875 72.90625 
L 38.28125 72.90625 
L 38.28125 8.296875 
L 54.390625 8.296875 
L 54.390625 0 
L 12.40625 0 
z
" id="DejaVuSans-31"/>
      </defs>
      <g style="fill:#555555;" transform="translate(257.742737 302.78544)rotate(-30)scale(0.1 -0.1)">
       <use xlink:href="#DejaVuSans-32"/>
       <use x="63.623047" xlink:href="#DejaVuSans-30"/>
       <use x="127.246094" xlink:href="#DejaVuSans-31"/>
       <use x="190.869141" xlink:href="#DejaVuSans-31"/>
      </g>
     </g>
    </g>
    <g id="xtick_6">
     <g id="line2d_11">
      <path clip-path="url(#p634852e62c)" d="M 325.516425 276.48 
L 325.516425 41.472 
" style="fill:none;stroke:#ffffff;stroke-linecap:square;stroke-width:0.8;"/>
     </g>
     <g id="line2d_12">
      <g>
       <use style="fill:#555555;stroke:#555555;stroke-width:0.8;" x="325.516425" xlink:href="#m280755b8df" y="276.48"/>
      </g>
     </g>
     <g id="text_6">
      <!-- 2013 -->
      <g style="fill:#555555;" transform="translate(302.436235 302.78544)rotate(-30)scale(0.1 -0.1)">
       <use xlink:href="#DejaVuSans-32"/>
       <use x="63.623047" xlink:href="#DejaVuSans-30"/>
       <use x="127.246094" xlink:href="#DejaVuSans-31"/>
       <use x="190.869141" xlink:href="#DejaVuSans-33"/>
      </g>
     </g>
    </g>
    <g id="xtick_7">
     <g id="line2d_13">
      <path clip-path="url(#p634852e62c)" d="M 370.148783 276.48 
L 370.148783 41.472 
" style="fill:none;stroke:#ffffff;stroke-linecap:square;stroke-width:0.8;"/>
     </g>
     <g id="line2d_14">
      <g>
       <use style="fill:#555555;stroke:#555555;stroke-width:0.8;" x="370.148783" xlink:href="#m280755b8df" y="276.48"/>
      </g>
     </g>
     <g id="text_7">
      <!-- 2015 -->
      <g style="fill:#555555;" transform="translate(347.068592 302.78544)rotate(-30)scale(0.1 -0.1)">
       <use xlink:href="#DejaVuSans-32"/>
       <use x="63.623047" xlink:href="#DejaVuSans-30"/>
       <use x="127.246094" xlink:href="#DejaVuSans-31"/>
       <use x="190.869141" xlink:href="#DejaVuSans-35"/>
      </g>
     </g>
    </g>
    <g id="text_8">
     <!-- Date -->
     <defs>
      <path d="M 19.671875 64.796875 
L 19.671875 8.109375 
L 31.59375 8.109375 
Q 46.6875 8.109375 53.6875 14.9375 
Q 60.6875 21.78125 60.6875 36.53125 
Q 60.6875 51.171875 53.6875 57.984375 
Q 46.6875 64.796875 31.59375 64.796875 
z
M 9.8125 72.90625 
L 30.078125 72.90625 
Q 51.265625 72.90625 61.171875 64.09375 
Q 71.09375 55.28125 71.09375 36.53125 
Q 71.09375 17.671875 61.125 8.828125 
Q 51.171875 0 30.078125 0 
L 9.8125 0 
z
" id="DejaVuSans-44"/>
      <path d="M 34.28125 27.484375 
Q 23.390625 27.484375 19.1875 25 
Q 14.984375 22.515625 14.984375 16.5 
Q 14.984375 11.71875 18.140625 8.90625 
Q 21.296875 6.109375 26.703125 6.109375 
Q 34.1875 6.109375 38.703125 11.40625 
Q 43.21875 16.703125 43.21875 25.484375 
L 43.21875 27.484375 
z
M 52.203125 31.203125 
L 52.203125 0 
L 43.21875 0 
L 43.21875 8.296875 
Q 40.140625 3.328125 35.546875 0.953125 
Q 30.953125 -1.421875 24.3125 -1.421875 
Q 15.921875 -1.421875 10.953125 3.296875 
Q 6 8.015625 6 15.921875 
Q 6 25.140625 12.171875 29.828125 
Q 18.359375 34.515625 30.609375 34.515625 
L 43.21875 34.515625 
L 43.21875 35.40625 
Q 43.21875 41.609375 39.140625 45 
Q 35.0625 48.390625 27.6875 48.390625 
Q 23 48.390625 18.546875 47.265625 
Q 14.109375 46.140625 10.015625 43.890625 
L 10.015625 52.203125 
Q 14.9375 54.109375 19.578125 55.046875 
Q 24.21875 56 28.609375 56 
Q 40.484375 56 46.34375 49.84375 
Q 52.203125 43.703125 52.203125 31.203125 
z
" id="DejaVuSans-61"/>
      <path d="M 18.3125 70.21875 
L 18.3125 54.6875 
L 36.8125 54.6875 
L 36.8125 47.703125 
L 18.3125 47.703125 
L 18.3125 18.015625 
Q 18.3125 11.328125 20.140625 9.421875 
Q 21.96875 7.515625 27.59375 7.515625 
L 36.8125 7.515625 
L 36.8125 0 
L 27.59375 0 
Q 17.1875 0 13.234375 3.875 
Q 9.28125 7.765625 9.28125 18.015625 
L 9.28125 47.703125 
L 2.6875 47.703125 
L 2.6875 54.6875 
L 9.28125 54.6875 
L 9.28125 70.21875 
z
" id="DejaVuSans-74"/>
      <path d="M 56.203125 29.59375 
L 56.203125 25.203125 
L 14.890625 25.203125 
Q 15.484375 15.921875 20.484375 11.0625 
Q 25.484375 6.203125 34.421875 6.203125 
Q 39.59375 6.203125 44.453125 7.46875 
Q 49.3125 8.734375 54.109375 11.28125 
L 54.109375 2.78125 
Q 49.265625 0.734375 44.1875 -0.34375 
Q 39.109375 -1.421875 33.890625 -1.421875 
Q 20.796875 -1.421875 13.15625 6.1875 
Q 5.515625 13.8125 5.515625 26.8125 
Q 5.515625 40.234375 12.765625 48.109375 
Q 20.015625 56 32.328125 56 
Q 43.359375 56 49.78125 48.890625 
Q 56.203125 41.796875 56.203125 29.59375 
z
M 47.21875 32.234375 
Q 47.125 39.59375 43.09375 43.984375 
Q 39.0625 48.390625 32.421875 48.390625 
Q 24.90625 48.390625 20.390625 44.140625 
Q 15.875 39.890625 15.1875 32.171875 
z
" id="DejaVuSans-65"/>
     </defs>
     <g style="fill:#555555;" transform="translate(221.819063 317.704627)scale(0.12 -0.12)">
      <use xlink:href="#DejaVuSans-44"/>
      <use x="77.001953" xlink:href="#DejaVuSans-61"/>
      <use x="138.28125" xlink:href="#DejaVuSans-74"/>
      <use x="177.490234" xlink:href="#DejaVuSans-65"/>
     </g>
    </g>
   </g>
   <g id="matplotlib.axis_2">
    <g id="ytick_1">
     <g id="line2d_15">
      <path clip-path="url(#p634852e62c)" d="M 57.6 267.282335 
L 414.72 267.282335 
" style="fill:none;stroke:#ffffff;stroke-linecap:square;stroke-width:0.8;"/>
     </g>
     <g id="line2d_16">
      <defs>
       <path d="M 0 0 
L -3.5 0 
" id="md19927622c" style="stroke:#555555;stroke-width:0.8;"/>
      </defs>
      <g>
       <use style="fill:#555555;stroke:#555555;stroke-width:0.8;" x="57.6" xlink:href="#md19927622c" y="267.282335"/>
      </g>
     </g>
     <g id="text_9">
      <!-- 0 -->
      <g style="fill:#555555;" transform="translate(44.2375 271.081554)scale(0.1 -0.1)">
       <use xlink:href="#DejaVuSans-30"/>
      </g>
     </g>
    </g>
    <g id="ytick_2">
     <g id="line2d_17">
      <path clip-path="url(#p634852e62c)" d="M 57.6 235.283504 
L 414.72 235.283504 
" style="fill:none;stroke:#ffffff;stroke-linecap:square;stroke-width:0.8;"/>
     </g>
     <g id="line2d_18">
      <g>
       <use style="fill:#555555;stroke:#555555;stroke-width:0.8;" x="57.6" xlink:href="#md19927622c" y="235.283504"/>
      </g>
     </g>
     <g id="text_10">
      <!-- 20 -->
      <g style="fill:#555555;" transform="translate(37.875 239.082723)scale(0.1 -0.1)">
       <use xlink:href="#DejaVuSans-32"/>
       <use x="63.623047" xlink:href="#DejaVuSans-30"/>
      </g>
     </g>
    </g>
    <g id="ytick_3">
     <g id="line2d_19">
      <path clip-path="url(#p634852e62c)" d="M 57.6 203.284673 
L 414.72 203.284673 
" style="fill:none;stroke:#ffffff;stroke-linecap:square;stroke-width:0.8;"/>
     </g>
     <g id="line2d_20">
      <g>
       <use style="fill:#555555;stroke:#555555;stroke-width:0.8;" x="57.6" xlink:href="#md19927622c" y="203.284673"/>
      </g>
     </g>
     <g id="text_11">
      <!-- 40 -->
      <defs>
       <path d="M 37.796875 64.3125 
L 12.890625 25.390625 
L 37.796875 25.390625 
z
M 35.203125 72.90625 
L 47.609375 72.90625 
L 47.609375 25.390625 
L 58.015625 25.390625 
L 58.015625 17.1875 
L 47.609375 17.1875 
L 47.609375 0 
L 37.796875 0 
L 37.796875 17.1875 
L 4.890625 17.1875 
L 4.890625 26.703125 
z
" id="DejaVuSans-34"/>
      </defs>
      <g style="fill:#555555;" transform="translate(37.875 207.083892)scale(0.1 -0.1)">
       <use xlink:href="#DejaVuSans-34"/>
       <use x="63.623047" xlink:href="#DejaVuSans-30"/>
      </g>
     </g>
    </g>
    <g id="ytick_4">
     <g id="line2d_21">
      <path clip-path="url(#p634852e62c)" d="M 57.6 171.285842 
L 414.72 171.285842 
" style="fill:none;stroke:#ffffff;stroke-linecap:square;stroke-width:0.8;"/>
     </g>
     <g id="line2d_22">
      <g>
       <use style="fill:#555555;stroke:#555555;stroke-width:0.8;" x="57.6" xlink:href="#md19927622c" y="171.285842"/>
      </g>
     </g>
     <g id="text_12">
      <!-- 60 -->
      <defs>
       <path d="M 33.015625 40.375 
Q 26.375 40.375 22.484375 35.828125 
Q 18.609375 31.296875 18.609375 23.390625 
Q 18.609375 15.53125 22.484375 10.953125 
Q 26.375 6.390625 33.015625 6.390625 
Q 39.65625 6.390625 43.53125 10.953125 
Q 47.40625 15.53125 47.40625 23.390625 
Q 47.40625 31.296875 43.53125 35.828125 
Q 39.65625 40.375 33.015625 40.375 
z
M 52.59375 71.296875 
L 52.59375 62.3125 
Q 48.875 64.0625 45.09375 64.984375 
Q 41.3125 65.921875 37.59375 65.921875 
Q 27.828125 65.921875 22.671875 59.328125 
Q 17.53125 52.734375 16.796875 39.40625 
Q 19.671875 43.65625 24.015625 45.921875 
Q 28.375 48.1875 33.59375 48.1875 
Q 44.578125 48.1875 50.953125 41.515625 
Q 57.328125 34.859375 57.328125 23.390625 
Q 57.328125 12.15625 50.6875 5.359375 
Q 44.046875 -1.421875 33.015625 -1.421875 
Q 20.359375 -1.421875 13.671875 8.265625 
Q 6.984375 17.96875 6.984375 36.375 
Q 6.984375 53.65625 15.1875 63.9375 
Q 23.390625 74.21875 37.203125 74.21875 
Q 40.921875 74.21875 44.703125 73.484375 
Q 48.484375 72.75 52.59375 71.296875 
z
" id="DejaVuSans-36"/>
      </defs>
      <g style="fill:#555555;" transform="translate(37.875 175.08506)scale(0.1 -0.1)">
       <use xlink:href="#DejaVuSans-36"/>
       <use x="63.623047" xlink:href="#DejaVuSans-30"/>
      </g>
     </g>
    </g>
    <g id="ytick_5">
     <g id="line2d_23">
      <path clip-path="url(#p634852e62c)" d="M 57.6 139.28701 
L 414.72 139.28701 
" style="fill:none;stroke:#ffffff;stroke-linecap:square;stroke-width:0.8;"/>
     </g>
     <g id="line2d_24">
      <g>
       <use style="fill:#555555;stroke:#555555;stroke-width:0.8;" x="57.6" xlink:href="#md19927622c" y="139.28701"/>
      </g>
     </g>
     <g id="text_13">
      <!-- 80 -->
      <defs>
       <path d="M 31.78125 34.625 
Q 24.75 34.625 20.71875 30.859375 
Q 16.703125 27.09375 16.703125 20.515625 
Q 16.703125 13.921875 20.71875 10.15625 
Q 24.75 6.390625 31.78125 6.390625 
Q 38.8125 6.390625 42.859375 10.171875 
Q 46.921875 13.96875 46.921875 20.515625 
Q 46.921875 27.09375 42.890625 30.859375 
Q 38.875 34.625 31.78125 34.625 
z
M 21.921875 38.8125 
Q 15.578125 40.375 12.03125 44.71875 
Q 8.5 49.078125 8.5 55.328125 
Q 8.5 64.0625 14.71875 69.140625 
Q 20.953125 74.21875 31.78125 74.21875 
Q 42.671875 74.21875 48.875 69.140625 
Q 55.078125 64.0625 55.078125 55.328125 
Q 55.078125 49.078125 51.53125 44.71875 
Q 48 40.375 41.703125 38.8125 
Q 48.828125 37.15625 52.796875 32.3125 
Q 56.78125 27.484375 56.78125 20.515625 
Q 56.78125 9.90625 50.3125 4.234375 
Q 43.84375 -1.421875 31.78125 -1.421875 
Q 19.734375 -1.421875 13.25 4.234375 
Q 6.78125 9.90625 6.78125 20.515625 
Q 6.78125 27.484375 10.78125 32.3125 
Q 14.796875 37.15625 21.921875 38.8125 
z
M 18.3125 54.390625 
Q 18.3125 48.734375 21.84375 45.5625 
Q 25.390625 42.390625 31.78125 42.390625 
Q 38.140625 42.390625 41.71875 45.5625 
Q 45.3125 48.734375 45.3125 54.390625 
Q 45.3125 60.0625 41.71875 63.234375 
Q 38.140625 66.40625 31.78125 66.40625 
Q 25.390625 66.40625 21.84375 63.234375 
Q 18.3125 60.0625 18.3125 54.390625 
z
" id="DejaVuSans-38"/>
      </defs>
      <g style="fill:#555555;" transform="translate(37.875 143.086229)scale(0.1 -0.1)">
       <use xlink:href="#DejaVuSans-38"/>
       <use x="63.623047" xlink:href="#DejaVuSans-30"/>
      </g>
     </g>
    </g>
    <g id="ytick_6">
     <g id="line2d_25">
      <path clip-path="url(#p634852e62c)" d="M 57.6 107.288179 
L 414.72 107.288179 
" style="fill:none;stroke:#ffffff;stroke-linecap:square;stroke-width:0.8;"/>
     </g>
     <g id="line2d_26">
      <g>
       <use style="fill:#555555;stroke:#555555;stroke-width:0.8;" x="57.6" xlink:href="#md19927622c" y="107.288179"/>
      </g>
     </g>
     <g id="text_14">
      <!-- 100 -->
      <g style="fill:#555555;" transform="translate(31.5125 111.087398)scale(0.1 -0.1)">
       <use xlink:href="#DejaVuSans-31"/>
       <use x="63.623047" xlink:href="#DejaVuSans-30"/>
       <use x="127.246094" xlink:href="#DejaVuSans-30"/>
      </g>
     </g>
    </g>
    <g id="ytick_7">
     <g id="line2d_27">
      <path clip-path="url(#p634852e62c)" d="M 57.6 75.289348 
L 414.72 75.289348 
" style="fill:none;stroke:#ffffff;stroke-linecap:square;stroke-width:0.8;"/>
     </g>
     <g id="line2d_28">
      <g>
       <use style="fill:#555555;stroke:#555555;stroke-width:0.8;" x="57.6" xlink:href="#md19927622c" y="75.289348"/>
      </g>
     </g>
     <g id="text_15">
      <!-- 120 -->
      <g style="fill:#555555;" transform="translate(31.5125 79.088567)scale(0.1 -0.1)">
       <use xlink:href="#DejaVuSans-31"/>
       <use x="63.623047" xlink:href="#DejaVuSans-32"/>
       <use x="127.246094" xlink:href="#DejaVuSans-30"/>
      </g>
     </g>
    </g>
    <g id="ytick_8">
     <g id="line2d_29">
      <path clip-path="url(#p634852e62c)" d="M 57.6 43.290517 
L 414.72 43.290517 
" style="fill:none;stroke:#ffffff;stroke-linecap:square;stroke-width:0.8;"/>
     </g>
     <g id="line2d_30">
      <g>
       <use style="fill:#555555;stroke:#555555;stroke-width:0.8;" x="57.6" xlink:href="#md19927622c" y="43.290517"/>
      </g>
     </g>
     <g id="text_16">
      <!-- 140 -->
      <g style="fill:#555555;" transform="translate(31.5125 47.089736)scale(0.1 -0.1)">
       <use xlink:href="#DejaVuSans-31"/>
       <use x="63.623047" xlink:href="#DejaVuSans-34"/>
       <use x="127.246094" xlink:href="#DejaVuSans-30"/>
      </g>
     </g>
    </g>
   </g>
   <g id="line2d_31">
    <path clip-path="url(#p634852e62c)" d="M 57.6 265.582397 
L 57.66114 265.625253 
L 57.72228 265.2092 
L 57.783421 265.346692 
L 58.578243 265.246696 
L 58.639384 265.060987 
L 58.883945 265.075273 
L 59.006225 264.932421 
L 59.067365 265.053845 
L 59.250786 265.046703 
L 59.373066 264.825283 
L 59.434206 264.918135 
L 59.495347 264.868137 
L 60.106749 265.103844 
L 60.167889 265.003847 
L 60.229029 265.089558 
L 60.290169 265.032417 
L 60.35131 265.110986 
L 60.595871 265.089558 
L 60.657011 265.196698 
L 60.718151 265.103844 
L 60.779291 265.153842 
L 61.084992 265.06813 
L 61.146133 265.246696 
L 61.207273 265.189554 
L 61.451834 264.91457 
L 61.512974 264.846711 
L 61.574114 264.918135 
L 61.818675 265.032417 
L 61.940955 265.168126 
L 62.002096 264.896709 
L 62.063236 265.110986 
L 62.430077 264.953849 
L 62.491217 264.760998 
L 62.674638 264.639003 
L 62.858059 264.794426 
L 62.919199 264.705287 
L 63.16376 264.841282 
L 63.2249 265.024131 
L 63.28604 264.928135 
L 63.591741 264.893851 
L 63.652881 264.656145 
L 63.714022 264.834425 
L 63.958582 264.757856 
L 64.019723 264.859566 
L 64.080863 264.817283 
L 64.142003 264.362442 
L 64.203143 264.433297 
L 64.508844 264.515579 
L 64.631125 264.40244 
L 64.814545 264.231018 
L 64.875686 264.378441 
L 64.936826 264.272159 
L 64.997966 264.314444 
L 65.059106 264.51215 
L 65.303667 264.385299 
L 65.487088 264.652718 
L 65.792789 264.624146 
L 65.853929 264.513294 
L 65.915069 264.612719 
L 66.343051 264.631003 
L 66.587612 264.731571 
L 66.709892 265.01956 
L 66.771032 264.981848 
L 67.076733 264.890423 
L 67.137874 264.915564 
L 67.199014 264.808139 
L 67.382435 264.876709 
L 67.443575 265.022989 
L 67.504715 264.834425 
L 67.565855 264.992132 
L 67.932696 264.996705 
L 68.054977 264.713287 
L 68.299538 264.615004 
L 68.482958 264.578434 
L 68.91094 264.681288 
L 69.094361 264.757856 
L 69.155501 264.659573 
L 69.216641 264.878994 
L 69.338921 264.524722 
L 69.522342 264.43901 
L 70.011464 265.066416 
L 70.194884 265.139556 
L 70.928567 265.081273 
L 71.050847 265.106415 
L 71.417689 265.194411 
L 71.66225 265.209268 
L 72.762773 265.282408 
L 73.374176 265.453831 
L 73.435316 265.350977 
L 73.496456 265.39669 
L 73.557596 265.42069 
L 73.618737 265.590968 
L 73.924438 265.475544 
L 74.046718 265.486972 
L 74.65812 265.502971 
L 75.086102 265.230981 
L 75.208382 265.186412 
L 75.269522 265.306407 
L 75.330663 265.232124 
L 75.942065 265.160126 
L 76.003205 265.296121 
L 76.064345 265.256123 
L 76.186626 265.165841 
L 77.042589 265.080129 
L 77.34829 265.041275 
L 77.653991 265.003561 
L 77.715131 264.859566 
L 77.776271 264.899565 
L 77.898552 264.942992 
L 78.204253 264.727 
L 78.265393 264.599004 
L 78.326533 264.715571 
L 78.693374 264.826425 
L 78.754515 264.913279 
L 79.060216 264.930421 
L 79.121356 264.836711 
L 79.182496 264.88128 
L 79.549337 264.816139 
L 79.793898 264.709858 
L 79.916179 264.762427 
L 80.038459 264.615004 
L 80.22188 264.571577 
L 80.466441 264.837853 
L 80.772142 264.835567 
L 80.894422 264.768141 
L 81.628105 264.64586 
L 81.750385 264.500723 
L 81.994946 264.415011 
L 82.056086 264.356728 
L 82.178367 264.493866 
L 82.422928 264.464152 
L 82.606348 264.479009 
L 82.97319 264.663002 
L 83.03433 264.806997 
L 83.340031 264.546435 
L 83.462311 264.77614 
L 83.890293 264.45501 
L 85.541079 264.577292 
L 85.602219 264.431011 
L 85.90792 264.515579 
L 86.0302 264.424153 
L 86.763883 264.505294 
L 86.825023 264.589862 
L 86.886163 264.507579 
L 87.130724 264.552148 
L 87.253005 264.561292 
L 87.619846 264.631003 
L 87.742126 264.506437 
L 87.925547 264.594433 
L 88.170108 264.369299 
L 88.475809 264.611575 
L 88.536949 264.488151 
L 88.598089 264.426439 
L 88.964931 264.565863 
L 89.026071 264.529293 
L 89.820894 264.994419 
L 89.882034 265.083558 
L 90.126595 264.948707 
L 90.248875 265.32012 
L 90.493436 265.365834 
L 90.554576 265.293837 
L 90.615716 265.362405 
L 91.043698 265.361263 
L 91.349399 265.165841 
L 91.53282 265.309836 
L 91.59396 265.162413 
L 91.960801 265.510971 
L 92.021941 265.602397 
L 94.589831 265.598968 
L 95.690354 265.617254 
L 96.057196 265.595539 
L 96.179476 265.603539 
L 96.301757 265.626396 
L 97.34114 265.619538 
L 97.463421 265.584111 
L 97.585701 265.682394 
L 98.441664 265.460688 
L 98.808505 265.346406 
L 98.869646 265.452688 
L 99.297627 265.427545 
L 100.520431 265.564684 
L 100.581572 265.60811 
L 101.254114 265.585255 
L 102.293498 265.590968 
L 102.96604 265.603539 
L 103.822003 265.654966 
L 104.005424 265.660681 
L 105.289368 265.588683 
L 107.429276 265.636682 
L 109.569183 265.629824 
L 109.752604 265.594397 
L 109.997165 265.187554 
L 111.097689 265.229839 
L 111.219969 265.192125 
L 111.953652 265.352119 
L 112.809615 265.057274 
L 112.931895 265.145271 
L 112.993035 265.076702 
L 113.359877 265.110986 
L 115.377504 264.842424 
L 115.499784 265.02756 
L 115.560924 264.984133 
L 116.172327 265.012704 
L 116.416888 264.789855 
L 116.722589 264.892709 
L 117.21171 264.635574 
L 117.456271 264.713287 
L 118.128814 264.667573 
L 118.923636 264.90528 
L 119.229337 264.762427 
L 119.412758 264.59672 
L 119.84074 264.610433 
L 120.268721 264.704143 
L 120.574422 264.595576 
L 120.635562 264.540722 
L 120.696703 264.619575 
L 121.491525 264.760141 
L 121.552666 264.713287 
L 121.980647 264.957849 
L 123.142311 264.945278 
L 123.203451 264.968133 
L 123.264592 264.845853 
L 123.448012 264.826425 
L 123.631433 265.008132 
L 123.692573 264.974991 
L 123.998274 265.028704 
L 124.548536 264.819568 
L 124.854237 264.756714 
L 124.976518 264.627575 
L 125.159938 264.62529 
L 125.221079 264.459581 
L 125.282219 264.493866 
L 125.404499 264.666431 
L 126.688444 264.716715 
L 127.055285 264.584147 
L 127.116425 264.556721 
L 127.850108 264.736142 
L 128.155809 264.528149 
L 128.33923 264.547577 
L 128.58379 264.24016 
L 128.644931 264.322443 
L 128.828351 264.160163 
L 129.195193 264.317872 
L 129.439753 264.383012 
L 129.684314 264.196734 
L 130.479137 264.096165 
L 130.845978 264.226447 
L 130.968259 263.951028 
L 131.39624 264.116737 
L 131.701941 264.217305 
L 132.007643 264.311015 
L 132.496764 264.265303 
L 132.680185 264.168163 
L 132.924746 264.200161 
L 132.985886 264.151021 
L 133.047026 264.239018 
L 133.536148 264.07331 
L 133.841849 264.079023 
L 133.964129 264.018454 
L 134.697812 263.778463 
L 134.820092 263.5499 
L 135.431495 263.376191 
L 135.492635 263.617327 
L 135.553775 263.561329 
L 135.676055 263.799034 
L 135.981757 263.75675 
L 136.104037 263.823033 
L 136.348598 263.9396 
L 136.409738 263.984169 
L 136.532018 263.533901 
L 137.143421 263.75675 
L 137.326841 263.571613 
L 137.387982 263.551043 
L 137.693683 263.717894 
L 137.754823 263.647039 
L 137.999384 263.871031 
L 138.121664 263.728179 
L 138.182804 263.802462 
L 138.671926 263.77275 
L 138.977627 263.640183 
L 139.099908 263.319051 
L 139.405609 263.362478 
L 139.466749 263.225341 
L 139.527889 263.281339 
L 140.261572 263.24134 
L 140.322712 263.259624 
L 140.383852 263.105345 
L 140.628413 262.968206 
L 140.689553 262.928208 
L 140.750693 263.049347 
L 140.811834 263.002491 
L 141.056394 263.001349 
L 141.423236 262.804785 
L 141.484376 262.875639 
L 141.606656 262.649362 
L 141.667797 262.761358 
L 141.973498 262.840213 
L 142.095778 262.15338 
L 142.279199 262.173951 
L 142.340339 261.785394 
L 142.401479 261.890532 
L 142.52376 261.849391 
L 142.76832 261.859676 
L 143.135162 261.282554 
L 143.196302 261.293983 
L 143.318582 260.993422 
L 143.379723 261.012851 
L 143.685424 261.116847 
L 143.807704 260.995707 
L 144.113405 260.975137 
L 144.174545 261.076847 
L 144.235686 260.940853 
L 144.480247 260.162595 
L 144.541387 260.232308 
L 144.847088 259.402623 
L 144.969368 259.535189 
L 145.091649 259.907747 
L 145.275069 259.939746 
L 145.33621 259.747753 
L 145.45849 260.104311 
L 145.51963 259.850607 
L 145.947612 259.643757 
L 146.131032 259.800322 
L 146.253313 260.007172 
L 146.986995 259.879177 
L 147.048136 259.992317 
L 147.109276 259.915747 
L 147.231556 259.854035 
L 147.414977 259.302055 
L 147.537257 259.802608 
L 147.598398 258.858643 
L 147.659538 259.254057 
L 148.026379 259.322626 
L 148.087519 259.132918 
L 148.33208 259.126062 
L 148.39322 258.978638 
L 148.454361 259.035779 
L 148.698921 258.759218 
L 148.882342 258.242665 
L 148.943482 258.383231 
L 149.188043 258.246094 
L 149.249183 258.02096 
L 149.310324 258.286093 
L 149.371464 258.155811 
L 149.554884 257.827823 
L 149.738305 256.922714 
L 149.799445 257.255273 
L 150.105146 257.37184 
L 150.227427 257.040423 
L 150.594268 257.14099 
L 150.655408 257.508977 
L 150.838829 257.499835 
L 151.02225 258.247236 
L 151.08339 258.091813 
L 151.389091 257.86325 
L 151.450231 257.790111 
L 151.511371 257.378697 
L 151.755932 257.291842 
L 151.817072 257.579832 
L 151.878213 257.474693 
L 152.183914 257.55469 
L 152.367334 257.662115 
L 152.550755 257.913535 
L 152.611895 257.860966 
L 152.795316 257.294129 
L 152.978737 257.191275 
L 153.406718 259.282627 
L 153.528998 258.67465 
L 153.590139 258.962639 
L 153.651279 258.862072 
L 154.07926 259.019779 
L 154.384961 259.028923 
L 154.446102 258.76836 
L 154.507242 258.850643 
L 154.690663 258.761504 
L 155.118644 259.383195 
L 155.791186 257.993532 
L 156.035747 257.988961 
L 156.219168 258.560369 
L 156.402589 258.521513 
L 156.524869 258.91007 
L 156.586009 258.825502 
L 156.647149 258.734076 
L 156.89171 259.072349 
L 157.075131 258.489514 
L 157.319692 258.660936 
L 157.503112 258.347804 
L 157.686533 258.862072 
L 157.747673 258.713506 
L 157.931094 258.864358 
L 158.175655 258.928355 
L 158.359076 258.626651 
L 158.664777 258.530655 
L 158.787057 257.918106 
L 159.031618 257.792397 
L 159.153898 257.294129 
L 159.215039 257.353555 
L 159.52074 257.264416 
L 159.64302 257.326128 
L 159.826441 257.552404 
L 159.887581 257.479264 
L 159.948721 257.410696 
L 160.009861 257.479264 
L 160.071002 257.57069 
L 160.315562 257.470122 
L 160.376703 257.22556 
L 160.437843 257.364984 
L 160.498983 257.348984 
L 160.743544 256.450731 
L 160.926965 256.704435 
L 161.354946 256.741005 
L 161.538367 256.935284 
L 161.721787 256.53987 
L 161.782928 256.699864 
L 162.027488 256.608439 
L 162.210909 255.838182 
L 162.51661 255.611904 
L 162.57775 255.854181 
L 162.638891 255.801612 
L 162.822311 255.61419 
L 162.944592 255.177635 
L 163.005732 255.424483 
L 163.066872 255.374199 
L 163.311433 254.958214 
L 163.433713 255.573048 
L 163.494854 255.32163 
L 163.739414 254.722794 
L 163.800555 254.864504 
L 163.922835 255.461053 
L 164.106256 255.45191 
L 164.167396 255.573048 
L 164.228536 256.162741 
L 164.289676 255.982177 
L 164.350817 254.933071 
L 164.534237 254.944499 
L 164.656518 255.381056 
L 164.778798 254.29081 
L 164.962219 254.654225 
L 165.145639 254.256525 
L 165.20678 254.473661 
L 165.3902 254.665654 
L 165.634761 253.488554 
L 165.818182 253.374272 
L 165.940462 253.568551 
L 166.062743 253.216563 
L 166.307304 253.202849 
L 166.429584 252.290883 
L 166.490724 252.35488 
L 166.735285 252.462305 
L 166.918706 251.817758 
L 167.102126 251.118353 
L 167.163267 251.285206 
L 167.224407 251.641764 
L 167.285547 251.522911 
L 167.346687 250.764081 
L 167.530108 250.837222 
L 167.652388 250.316099 
L 167.713529 250.551517 
L 167.774669 250.320668 
L 168.01923 250.174389 
L 168.08037 250.704656 
L 168.14151 250.670371 
L 168.386071 251.029215 
L 168.508351 250.688656 
L 168.630632 250.32981 
L 168.875193 250.368668 
L 168.936333 250.261242 
L 168.997473 250.418951 
L 169.058613 251.074927 
L 169.303174 250.738939 
L 169.364314 250.110391 
L 169.425455 250.17896 
L 169.670015 249.744689 
L 169.731156 249.854399 
L 169.853436 247.861329 
L 169.914576 247.856758 
L 170.159137 247.694479 
L 170.342558 249.161855 
L 170.525978 249.888686 
L 170.587119 249.280706 
L 170.648259 249.593837 
L 170.770539 250.608658 
L 170.95396 251.015501 
L 171.0151 250.025823 
L 171.07624 250.151532 
L 171.137381 250.117247 
L 171.198521 250.770938 
L 171.381941 250.821223 
L 171.443082 251.678334 
L 171.504222 251.628049 
L 171.565362 251.488627 
L 171.626502 252.384593 
L 171.809923 252.053176 
L 171.871063 252.402879 
L 172.054484 251.214351 
L 172.299045 251.148067 
L 172.360185 251.511484 
L 172.482465 250.793793 
L 172.727026 250.921789 
L 172.788166 251.548052 
L 172.849307 251.513769 
L 172.910447 251.420057 
L 173.093867 251.8109 
L 173.155008 252.252027 
L 173.216148 252.130889 
L 173.277288 252.201744 
L 173.338428 252.64287 
L 173.582989 252.24974 
L 173.644129 251.806329 
L 173.70527 252.002893 
L 173.76641 252.482876 
L 173.949831 252.375452 
L 174.010971 253.154851 
L 174.072111 253.074854 
L 174.133251 253.152565 
L 174.194391 253.511411 
L 174.377812 253.488554 
L 174.500092 253.7674 
L 174.622373 252.825721 
L 174.805794 252.729723 
L 174.866934 253.088569 
L 175.050354 251.070356 
L 175.233775 251.216636 
L 175.417196 252.11946 
L 175.661757 252.080604 
L 175.722897 252.416592 
L 175.845177 251.394915 
L 175.906317 251.69662 
L 176.150878 252.206315 
L 176.212018 252.048607 
L 176.51772 251.106926 
L 176.57886 251.248636 
L 176.64 250.864648 
L 176.70114 251.004072 
L 176.945701 250.599516 
L 177.190262 251.77433 
L 177.373683 251.88404 
L 177.434823 251.717188 
L 177.618243 252.823434 
L 177.801664 252.684011 
L 177.862804 252.457733 
L 177.923945 252.885147 
L 177.985085 252.594872 
L 178.046225 252.583443 
L 178.290786 252.816577 
L 178.413066 253.602835 
L 178.474206 252.885147 
L 178.841048 253.925108 
L 178.902188 253.298846 
L 179.085609 253.705689 
L 179.269029 254.18567 
L 179.330169 253.806256 
L 179.635871 254.085104 
L 179.697011 253.979965 
L 179.758151 253.632549 
L 180.002712 253.776544 
L 180.124992 254.309095 
L 180.186133 254.119387 
L 180.552974 254.233669 
L 180.614114 254.601656 
L 180.797535 254.551371 
L 180.919815 254.672509 
L 180.980955 255.390198 
L 181.042096 255.282773 
L 181.225516 255.458767 
L 181.286656 255.131923 
L 181.347797 255.177635 
L 181.408937 253.34913 
L 181.470077 253.609692 
L 181.775778 253.111426 
L 181.836918 252.540016 
L 181.898059 252.668011 
L 182.2649 251.760617 
L 182.32604 251.957181 
L 182.509461 251.804043 
L 182.631741 252.327453 
L 182.754022 252.830292 
L 182.937442 252.64287 
L 183.120863 251.740045 
L 183.182003 251.806329 
L 183.426564 252.041749 
L 183.487704 251.740045 
L 183.548844 251.765188 
L 183.609985 251.890897 
L 183.793405 251.625765 
L 183.854545 251.970894 
L 183.915686 251.890897 
L 183.976826 251.904612 
L 184.037966 251.630336 
L 184.282527 251.518338 
L 184.465948 250.512663 
L 184.649368 250.727511 
L 184.710508 250.640658 
L 184.771649 250.631515 
L 184.893929 250.231529 
L 185.07735 250.41438 
L 185.13849 250.345811 
L 185.26077 250.082963 
L 185.321911 250.300099 
L 185.505331 250.412094 
L 185.627612 249.644123 
L 185.688752 249.678407 
L 185.749892 249.657835 
L 186.055593 250.345811 
L 186.177874 250.27267 
L 186.361294 250.41438 
L 186.422435 250.245244 
L 186.483575 250.501235 
L 186.544715 250.457806 
L 186.605855 249.996109 
L 186.911556 250.197244 
L 186.972696 249.166426 
L 187.033837 249.23271 
L 187.217257 248.999574 
L 187.400678 248.563019 
L 187.461818 248.597302 
L 187.645239 248.999574 
L 187.706379 248.665871 
L 187.767519 248.74587 
L 187.828659 249.244138 
L 187.8898 249.143569 
L 188.07322 249.237281 
L 188.317781 248.185889 
L 188.501202 248.261315 
L 188.623482 247.843045 
L 188.745763 247.822475 
L 188.929183 247.763048 
L 189.051464 246.942507 
L 189.173744 246.819083 
L 189.357165 246.137965 
L 189.418305 246.629376 
L 189.479445 246.025969 
L 189.540586 246.206534 
L 189.601726 246.300246 
L 189.846287 246.334529 
L 190.029707 247.344777 
L 190.213128 246.963077 
L 190.274268 247.029361 
L 190.335408 247.180213 
L 190.457689 246.93565 
L 190.641109 247.253352 
L 190.70225 247.916187 
L 190.76339 247.518484 
L 190.88567 248.206461 
L 191.130231 248.505879 
L 191.191371 249.42013 
L 191.252512 248.947005 
L 191.313652 248.094465 
L 191.619353 247.559627 
L 191.680493 248.071608 
L 191.741633 247.67848 
L 191.986194 247.523057 
L 192.108475 245.353994 
L 192.169615 245.662554 
L 192.414176 245.41342 
L 192.475316 244.983721 
L 192.597596 247.02479 
L 192.781017 246.908223 
L 192.842157 247.687622 
L 192.903297 247.470488 
L 193.025578 247.372206 
L 193.270139 247.527628 
L 193.331279 247.886472 
L 193.392419 247.573341 
L 193.453559 248.055609 
L 193.75926 247.973327 
L 193.881541 247.653337 
L 194.064961 247.984754 
L 194.248382 247.753906 
L 194.554083 247.934471 
L 194.615223 247.630482 
L 194.676364 246.528807 
L 194.737504 246.903651 
L 194.920924 246.748228 
L 195.043205 248.311601 
L 195.104345 248.076179 
L 195.165485 247.449916 
L 195.348906 247.651052 
L 195.532327 247.033932 
L 195.593467 246.985933 
L 195.776888 247.152784 
L 195.960308 246.7208 
L 196.021448 246.816796 
L 196.204869 246.656802 
L 196.38829 245.859118 
L 196.44943 245.945972 
L 196.632851 245.799691 
L 196.693991 245.406563 
L 196.755131 245.59627 
L 196.877411 245.733407 
L 197.121972 245.765407 
L 197.183112 245.582557 
L 197.244253 245.769979 
L 197.488814 245.520844 
L 197.733374 246.505952 
L 197.916795 246.581378 
L 197.977935 246.25453 
L 198.100216 246.668231 
L 198.161356 246.508238 
L 198.344777 246.348242 
L 198.528197 244.064897 
L 198.589337 244.842012 
L 198.772758 244.405456 
L 198.833898 244.519738 
L 198.895039 244.506025 
L 199.017319 244.243177 
L 199.20074 244.179179 
L 199.4453 242.656948 
L 199.689861 242.238679 
L 199.812142 242.791801 
L 199.873282 242.087827 
L 200.056703 242.069541 
L 200.178983 241.221572 
L 200.301263 241.68327 
L 200.545824 241.123291 
L 200.606965 241.157576 
L 200.729245 239.603348 
L 200.912666 240.167895 
L 201.157227 238.52453 
L 201.340647 238.483387 
L 201.524068 240.494742 
L 201.585208 239.713057 
L 201.829769 238.782805 
L 201.890909 238.970225 
L 201.952049 239.466209 
L 202.01319 238.974796 
L 202.25775 238.945085 
L 202.318891 239.715342 
L 202.380031 239.315357 
L 202.624592 239.614776 
L 202.685732 239.397638 
L 202.869153 236.853731 
L 203.052573 237.025156 
L 203.113713 237.825126 
L 203.297134 236.419461 
L 203.480555 235.651491 
L 203.541695 235.672061 
L 203.602835 235.697204 
L 203.725116 234.906375 
L 203.908536 234.52696 
L 204.030817 235.889195 
L 204.153097 233.8687 
L 204.397658 234.604671 
L 204.458798 236.737164 
L 204.519938 236.04919 
L 204.764499 236.906302 
L 204.88678 236.024047 
L 205.00906 239.141648 
L 205.253621 237.959977 
L 205.375901 240.53817 
L 205.437042 239.395354 
L 205.620462 238.949658 
L 205.681602 239.349643 
L 205.803883 236.862875 
L 205.865023 237.447998 
L 206.048444 236.794306 
L 206.170724 237.596563 
L 206.293005 235.400071 
L 206.537565 235.297219 
L 206.598706 234.147547 
L 206.720986 237.109722 
L 206.965547 235.763485 
L 207.026687 236.200042 
L 207.087827 235.550923 
L 207.148968 236.067475 
L 207.393529 235.498352 
L 207.454669 234.593243 
L 207.515809 235.249219 
L 207.576949 235.022942 
L 207.82151 233.720134 
L 207.88265 231.976198 
L 207.94379 232.136192 
L 208.004931 232.211616 
L 208.188351 231.939626 
L 208.371772 231.169369 
L 208.432912 231.084798 
L 208.616333 229.914556 
L 208.677473 228.3809 
L 208.738613 228.98659 
L 208.799753 228.543181 
L 208.860894 230.024266 
L 209.044314 228.888309 
L 209.105455 229.446004 
L 209.288875 227.457505 
L 209.472296 228.346615 
L 209.533436 224.184481 
L 209.594576 224.81303 
L 209.655716 225.027879 
L 209.716857 224.931884 
L 209.900277 224.895312 
L 210.144838 224.035913 
L 210.328259 224.931884 
L 210.450539 223.715926 
L 210.51168 224.616465 
L 210.57282 228.163762 
L 210.817381 230.517964 
L 210.878521 226.790101 
L 210.939661 229.251724 
L 211.000801 229.500858 
L 211.184222 229.318008 
L 211.245362 229.416289 
L 211.306502 229.377433 
L 211.428783 227.969486 
L 211.612203 227.606071 
L 211.795624 226.271264 
L 211.856764 224.463328 
L 212.101325 226.792387 
L 212.284746 223.731927 
L 212.529307 222.769676 
L 212.651587 223.811923 
L 212.712727 223.77078 
L 212.896148 223.690785 
L 213.018428 225.459864 
L 213.079569 224.899883 
L 213.140709 223.827922 
L 213.56869 221.434867 
L 213.874391 221.736572 
L 214.302373 228.12948 
L 214.363513 226.694103 
L 214.424653 227.055233 
L 214.669214 226.662105 
L 214.791495 230.367112 
L 214.852635 230.321399 
L 215.097196 233.441286 
L 215.158336 236.154328 
L 215.219476 235.28579 
L 215.280616 235.514352 
L 215.464037 237.989692 
L 215.586317 237.256003 
L 215.647458 237.694845 
L 215.708598 236.142903 
L 215.892018 236.606884 
L 216.075439 239.861623 
L 216.136579 239.379353 
L 216.38114 237.40914 
L 216.44228 238.327964 
L 216.503421 237.706273 
L 216.564561 238.421674 
L 216.809122 238.485673 
L 216.870262 239.351925 
L 216.931402 238.471959 
L 216.992542 239.287929 
L 217.237103 240.394175 
L 217.298243 240.259324 
L 217.420524 237.731416 
L 217.665085 239.399925 
L 217.726225 239.036511 
L 217.787365 238.801091 
L 217.848505 239.761054 
L 218.031926 239.402211 
L 218.154206 238.245682 
L 218.215347 238.917658 
L 218.276487 237.596563 
L 218.459908 239.271929 
L 218.582188 236.856018 
L 218.643328 237.313145 
L 218.887889 236.652598 
L 219.07131 234.152115 
L 219.13245 234.87209 
L 219.315871 234.536104 
L 219.560431 232.497321 
L 219.743852 231.596783 
L 219.927273 232.739597 
L 219.988413 232.376183 
L 220.171834 233.736133 
L 220.660955 229.020875 
L 220.722096 229.786561 
L 220.783236 229.491714 
L 220.844376 228.266618 
L 221.027797 228.483752 
L 221.088937 228.172906 
L 221.272357 226.097555 
L 221.455778 225.70214 
L 221.578059 224.758175 
L 221.700339 225.418722 
L 221.88376 224.950169 
L 222.00604 223.574218 
L 222.06718 224.584466 
L 222.12832 223.830209 
L 222.311741 224.344475 
L 222.495162 226.310117 
L 222.556302 225.964987 
L 222.800863 225.512432 
L 222.862003 224.447327 
L 222.923143 224.595894 
L 223.167704 224.175337 
L 223.289985 225.222156 
L 223.351125 224.691889 
L 223.412265 224.312476 
L 223.595686 225.046164 
L 223.656826 226.024412 
L 223.717966 225.149017 
L 223.779106 225.800422 
L 223.840247 228.051768 
L 224.023667 228.12948 
L 224.145948 225.884988 
L 224.207088 226.472397 
L 224.268228 226.289546 
L 224.512789 227.884915 
L 224.573929 227.372935 
L 224.635069 227.496358 
L 224.69621 229.224295 
L 224.87963 228.383185 
L 224.94077 229.745421 
L 225.001911 227.238083 
L 225.063051 228.520324 
L 225.368752 227.192372 
L 225.429892 226.095268 
L 225.491032 227.302082 
L 225.552173 227.176373 
L 225.735593 226.314688 
L 225.857874 228.3809 
L 225.919014 227.489502 
L 225.980154 228.764884 
L 226.163575 229.135157 
L 226.224715 233.226435 
L 226.285855 229.571713 
L 226.346995 229.724851 
L 226.408136 230.620817 
L 226.591556 230.177404 
L 226.652696 231.761346 
L 226.713837 231.219651 
L 226.774977 231.274508 
L 226.836117 230.735099 
L 227.080678 231.75906 
L 227.264099 229.82999 
L 227.69208 226.360401 
L 227.936641 227.388935 
L 227.997781 227.336367 
L 228.058921 227.404934 
L 228.120062 227.096373 
L 228.303482 227.020948 
L 228.364622 227.795777 
L 228.425763 227.670067 
L 228.486903 227.219797 
L 228.548043 227.750067 
L 228.792604 227.878061 
L 228.976025 231.034517 
L 229.159445 229.667709 
L 229.342866 233.413859 
L 229.404006 232.789881 
L 229.770847 237.438854 
L 229.831988 234.689239 
L 230.015408 235.297219 
L 230.137689 238.193111 
L 230.198829 237.614849 
L 230.259969 238.73252 
L 230.44339 239.941619 
L 230.50453 242.540381 
L 230.56567 241.701556 
L 230.871371 246.263674 
L 230.932512 244.316318 
L 230.993652 247.646481 
L 231.054792 245.945972 
L 231.115932 247.694479 
L 231.360493 240.709591 
L 231.543914 244.517451 
L 231.727334 244.476311 
L 231.788475 245.123145 
L 231.849615 245.027148 
L 231.910755 245.223712 
L 231.971895 246.636233 
L 232.277596 244.229464 
L 232.338737 242.544952 
L 232.399877 242.734661 
L 232.583297 243.070648 
L 232.644438 242.142682 
L 232.705578 242.389529 
L 232.827858 244.599735 
L 233.011279 244.387171 
L 233.1947 246.74137 
L 233.25584 245.85226 
L 233.43926 247.059074 
L 233.500401 246.79394 
L 233.561541 246.839653 
L 233.683821 248.556162 
L 233.867242 247.806475 
L 233.928382 245.65341 
L 233.989522 246.729942 
L 234.111803 245.637412 
L 234.417504 246.848797 
L 234.478644 245.699124 
L 234.539784 246.631661 
L 234.784345 244.874011 
L 234.845485 244.912867 
L 234.906626 245.031719 
L 234.967766 246.071681 
L 235.151186 245.342565 
L 235.334607 246.869366 
L 235.395747 246.725371 
L 235.579168 246.707087 
L 235.701448 247.59391 
L 235.823729 247.47963 
L 236.007149 247.507057 
L 236.06829 247.301351 
L 236.12943 247.632768 
L 236.25171 247.653337 
L 236.496271 245.351707 
L 236.618552 246.613377 
L 236.679692 245.977971 
L 236.924253 247.113929 
L 236.985393 247.571055 
L 237.046533 248.867008 
L 237.107673 248.014468 
L 237.352234 248.556162 
L 237.413374 249.136712 
L 237.474515 247.159641 
L 237.535655 247.438489 
L 237.780216 246.668231 
L 237.902496 246.005397 
L 237.963636 246.117393 
L 238.147057 246.917364 
L 238.391618 245.107145 
L 238.636179 244.122037 
L 238.758459 245.379135 
L 238.819599 244.656875 
L 239.06416 245.141429 
L 239.247581 246.848797 
L 239.431002 246.334529 
L 239.492142 247.294494 
L 239.553282 246.743657 
L 239.614422 246.25453 
L 239.675562 247.184783 
L 239.858983 247.141356 
L 240.042404 246.606519 
L 240.286965 248.041896 
L 240.348105 247.884186 
L 240.531525 245.27171 
L 240.714946 245.219141 
L 240.776086 245.513988 
L 240.959507 243.94833 
L 241.142928 243.806621 
L 241.326348 242.636379 
L 241.387488 242.544952 
L 241.69319 243.491204 
L 241.81547 241.182717 
L 241.998891 241.011295 
L 242.182311 240.215895 
L 242.426872 239.852481 
L 242.488012 239.953047 
L 242.549153 240.494742 
L 242.671433 239.585062 
L 242.854854 239.459353 
L 242.915994 240.108472 
L 243.038274 238.341677 
L 243.099414 238.794233 
L 243.282835 239.191934 
L 243.343975 239.089079 
L 243.466256 238.433103 
L 243.527396 238.529101 
L 243.710817 237.971406 
L 243.833097 236.808021 
L 243.894237 237.036584 
L 243.955378 237.788555 
L 244.138798 238.170255 
L 244.199938 237.669702 
L 244.322219 239.905049 
L 244.383359 239.3245 
L 244.56678 239.002226 
L 244.68906 238.110829 
L 244.811341 238.929086 
L 245.055901 238.766806 
L 245.239322 236.337179 
L 245.422743 236.090332 
L 245.667304 234.069833 
L 245.973005 234.762381 
L 246.095285 235.555494 
L 246.278706 236.195471 
L 246.339846 236.046903 
L 246.400986 236.044619 
L 246.462126 236.172614 
L 246.706687 235.130366 
L 246.828968 236.330322 
L 246.890108 236.254897 
L 246.951248 235.331504 
L 247.134669 234.492675 
L 247.195809 234.69381 
L 247.256949 234.483533 
L 247.318089 234.997799 
L 247.62379 235.630918 
L 247.684931 236.216041 
L 247.746071 235.795485 
L 247.807211 236.120046 
L 248.051772 234.819519 
L 248.235193 233.208153 
L 248.540894 231.217364 
L 248.663174 231.409359 
L 248.846595 230.673388 
L 248.968875 230.96366 
L 249.091156 230.028838 
L 249.396857 229.398004 
L 249.519137 229.457432 
L 249.702558 229.418576 
L 249.824838 230.129407 
L 249.947119 228.897452 
L 250.19168 230.339685 
L 250.25282 230.083694 
L 250.558521 228.399186 
L 250.741941 228.712315 
L 250.803082 227.907772 
L 251.108783 229.656281 
L 251.169923 229.240296 
L 251.231063 229.048305 
L 251.475624 227.745494 
L 251.536764 227.791205 
L 251.597904 227.955772 
L 251.659045 227.761492 
L 251.842465 228.236905 
L 252.087026 224.808459 
L 252.270447 225.160445 
L 252.453867 224.495327 
L 252.515008 225.681568 
L 252.698428 225.256441 
L 252.759569 224.602752 
L 252.820709 224.739889 
L 252.881849 224.918169 
L 252.942989 225.818707 
L 253.309831 223.704498 
L 253.370971 224.09077 
L 253.676672 223.341084 
L 253.798952 224.003918 
L 253.982373 224.346761 
L 254.165794 220.495473 
L 254.226934 220.26691 
L 254.410354 220.730892 
L 254.899476 224.346761 
L 255.082897 223.281656 
L 255.327458 221.336586 
L 255.388598 220.527472 
L 255.449738 220.852031 
L 255.510878 220.913744 
L 255.816579 220.074917 
L 255.93886 221.763996 
L 256.244561 220.335479 
L 256.366841 221.748 
L 256.611402 221.057739 
L 256.733683 222.159411 
L 256.794823 221.638287 
L 257.039384 224.001631 
L 257.100524 223.56279 
L 257.161664 221.684001 
L 257.222804 222.077129 
L 257.650786 223.130804 
L 257.834206 222.472543 
L 258.017627 220.758321 
L 258.323328 218.68297 
L 258.384468 219.551507 
L 258.445609 218.568684 
L 258.690169 218.500117 
L 258.75131 218.232698 
L 258.81245 218.282984 
L 258.93473 219.215521 
L 259.118151 218.644112 
L 259.240431 219.770927 
L 259.362712 219.071527 
L 259.607273 219.665788 
L 259.668413 218.161843 
L 259.729553 218.808679 
L 259.790693 220.02006 
L 259.974114 220.996026 
L 260.096394 220.004064 
L 260.218675 221.322871 
L 260.402096 223.313656 
L 260.585516 222.31712 
L 260.646656 223.254228 
L 260.891217 222.387977 
L 260.952357 222.509115 
L 261.013498 222.739962 
L 261.074638 222.001704 
L 261.380339 220.61204 
L 261.441479 221.197162 
L 261.502619 221.144592 
L 261.68604 221.034882 
L 261.869461 222.168553 
L 261.930601 221.02574 
L 262.114022 220.255482 
L 262.175162 219.300088 
L 262.236302 219.526364 
L 262.297442 219.448655 
L 262.358582 218.154986 
L 262.542003 216.996172 
L 262.603143 217.384729 
L 262.786564 215.313945 
L 263.153405 216.061348 
L 263.214545 215.903639 
L 263.397966 216.891033 
L 263.581387 214.502549 
L 263.642527 214.952819 
L 264.009368 213.019175 
L 264.253929 213.57458 
L 264.43735 212.326627 
L 264.49849 212.100348 
L 264.681911 211.92436 
L 264.743051 212.002066 
L 264.926471 210.468414 
L 265.109892 210.820396 
L 265.171032 210.475268 
L 265.354453 206.029715 
L 265.537874 205.140605 
L 265.721294 207.165672 
L 265.782435 205.728011 
L 266.026995 207.195388 
L 266.210416 211.579224 
L 266.454977 209.72101 
L 266.577257 207.119963 
L 266.638398 208.962182 
L 266.821818 209.067318 
L 266.882958 208.546193 
L 267.066379 214.068282 
L 267.2498 210.763257 
L 267.31094 212.575764 
L 267.494361 207.995358 
L 267.738921 207.926788 
L 267.861202 206.671976 
L 267.922342 208.265064 
L 268.105763 208.246778 
L 268.289183 211.320952 
L 268.961726 203.812657 
L 269.145146 205.341738 
L 269.389707 206.271991 
L 269.573128 209.158745 
L 269.634268 210.029569 
L 269.878829 209.913002 
L 269.939969 210.029569 
L 270.001109 207.289098 
L 270.06225 208.566768 
L 270.24567 208.191921 
L 270.30681 208.697048 
L 270.429091 210.54612 
L 270.490231 209.414735 
L 270.673652 210.168991 
L 270.734792 211.764361 
L 270.795932 206.69255 
L 270.857072 208.386202 
L 270.918213 208.521054 
L 271.223914 207.017111 
L 271.346194 208.795329 
L 271.651895 207.206813 
L 271.774176 207.906221 
L 271.957596 207.517661 
L 272.079877 208.907325 
L 272.141017 210.89811 
L 272.202157 209.764434 
L 272.385578 210.694687 
L 272.568998 209.492448 
L 272.630139 210.280987 
L 272.813559 209.732436 
L 272.93584 212.87518 
L 272.99698 211.181528 
L 273.05812 212.027213 
L 273.241541 212.253486 
L 273.302681 212.004356 
L 273.486102 208.978178 
L 273.730663 208.623907 
L 273.852943 206.703975 
L 273.914083 207.126817 
L 274.219784 205.988572 
L 274.280924 205.51545 
L 274.342065 203.812657 
L 274.525485 204.180642 
L 274.708906 201.83787 
L 274.770046 200.519057 
L 274.953467 200.089361 
L 275.381448 202.918969 
L 275.442589 202.827549 
L 275.626009 200.608203 
L 275.87057 199.762518 
L 276.237411 194.491848 
L 276.298552 197.936297 
L 276.359692 196.656344 
L 276.420832 195.888373 
L 276.481972 196.640341 
L 276.665393 196.63577 
L 276.726533 197.143185 
L 276.787673 196.964902 
L 276.848814 196.896332 
L 276.909954 197.746587 
L 277.093374 198.206001 
L 277.337935 194.601561 
L 277.521356 194.782127 
L 277.582496 193.902159 
L 277.704777 195.284965 
L 277.765917 195.056402 
L 278.071618 198.439135 
L 278.132758 197.524886 
L 278.193898 196.891761 
L 278.377319 197.186611 
L 278.499599 195.970652 
L 278.8053 195.170681 
L 278.866441 195.618668 
L 278.988721 194.706703 
L 279.049861 194.825551 
L 279.233282 194.452995 
L 279.294422 193.273613 
L 279.355562 194.226716 
L 279.416703 193.655312 
L 279.477843 194.222143 
L 279.661263 193.143331 
L 279.783544 194.142148 
L 279.844684 193.893017 
L 279.905824 193.76959 
L 280.089245 193.77645 
L 280.272666 192.999336 
L 280.517227 193.490744 
L 280.639507 192.720489 
L 280.700647 192.889624 
L 280.761787 193.467887 
L 280.945208 192.853054 
L 281.128629 190.777702 
L 281.189769 190.944554 
L 281.37319 189.838308 
L 281.43433 188.455502 
L 281.49547 188.82806 
L 281.61775 188.224652 
L 281.862311 191.966227 
L 281.923451 187.662386 
L 281.984592 190.386859 
L 282.229153 192.571923 
L 282.412573 188.706922 
L 282.473713 188.617783 
L 282.657134 190.530854 
L 282.779414 188.553784 
L 282.840555 188.702349 
L 282.901695 188.738921 
L 283.085116 187.767528 
L 283.268536 185.596176 
L 283.329676 186.199585 
L 283.513097 185.733312 
L 283.635378 184.816775 
L 284.063359 189.852021 
L 284.185639 188.368646 
L 284.4302 186.035016 
L 284.491341 187.294399 
L 284.613621 184.983626 
L 284.797042 184.679639 
L 285.041602 188.352644 
L 285.225023 186.558428 
L 285.408444 190.295432 
L 285.469584 190.226862 
L 285.653005 190.487423 
L 285.714145 188.985769 
L 285.775285 189.735454 
L 286.080986 186.565282 
L 286.264407 188.117227 
L 286.325547 187.03155 
L 286.508968 188.585784 
L 286.570108 190.258861 
L 286.631248 189.292038 
L 286.692388 190.005159 
L 286.753529 189.589171 
L 286.998089 191.744525 
L 287.05923 190.709131 
L 287.12037 190.759417 
L 287.364931 192.747918 
L 287.548351 186.14244 
L 287.792912 187.207543 
L 287.854052 186.457859 
L 287.915193 186.773276 
L 287.976333 188.156081 
L 288.037473 188.021229 
L 288.220894 187.344685 
L 288.282034 187.744671 
L 288.343174 187.682959 
L 288.404314 187.650961 
L 288.465455 187.356111 
L 288.648875 187.774382 
L 288.771156 187.509247 
L 289.137997 191.399395 
L 289.260277 189.095476 
L 289.321418 189.671455 
L 289.504838 191.863373 
L 289.565978 190.599424 
L 289.627119 191.072546 
L 289.688259 190.491994 
L 289.749399 190.759417 
L 289.99396 189.319466 
L 290.0551 187.543536 
L 290.11624 188.085228 
L 290.177381 188.844056 
L 290.360801 188.268077 
L 290.483082 191.449675 
L 290.544222 191.113689 
L 290.788783 192.496492 
L 290.849923 191.856519 
L 290.911063 191.913659 
L 291.277904 194.900976 
L 291.461325 191.54339 
L 291.644746 192.407353 
L 291.767026 190.475998 
L 291.828166 190.782273 
L 292.133867 188.885199 
L 292.256148 186.217871 
L 292.317288 186.521858 
L 292.500709 185.836164 
L 292.561849 186.478432 
L 292.74527 184.732206 
L 292.92869 183.75853 
L 293.050971 176.74393 
L 293.112111 178.83985 
L 293.356672 178.062736 
L 293.478952 175.722252 
L 293.601233 178.682141 
L 293.784653 176.364514 
L 293.845794 176.394225 
L 294.273775 184.702496 
L 294.457196 180.869495 
L 294.640616 180.512933 
L 294.762897 179.900383 
L 294.885177 184.503645 
L 295.068598 183.968807 
L 295.129738 184.931058 
L 295.190878 181.920884 
L 295.252018 183.838527 
L 295.61886 178.012452 
L 295.985701 183.315114 
L 296.046841 179.157551 
L 296.107982 179.879814 
L 296.169122 179.530115 
L 296.352542 182.028308 
L 296.597103 176.876495 
L 296.780524 176.54279 
L 296.902804 171.368127 
L 297.025085 175.793104 
L 297.208505 175.889104 
L 297.269646 173.861749 
L 297.453066 178.800997 
L 297.697627 181.669465 
L 297.758767 183.203118 
L 297.819908 181.952878 
L 298.064468 180.636354 
L 298.309029 172.010388 
L 298.55359 170.883573 
L 298.675871 175.857103 
L 298.737011 176.291372 
L 298.920431 176.730217 
L 299.103852 174.129165 
L 299.164992 175.171412 
L 299.348413 175.303981 
L 299.409553 176.44908 
L 299.470693 175.83653 
L 299.531834 176.06967 
L 299.592974 175.393119 
L 299.776394 175.877672 
L 299.837535 175.351978 
L 300.020955 178.917563 
L 300.265516 180.245511 
L 300.326656 178.314156 
L 300.387797 179.518683 
L 300.632357 182.622567 
L 300.693498 182.480861 
L 300.754638 181.683179 
L 300.876918 183.075126 
L 301.121479 181.379186 
L 301.3049 178.181591 
L 301.48832 177.345051 
L 301.549461 177.569041 
L 301.610601 178.158735 
L 301.671741 177.811317 
L 301.732881 177.491329 
L 301.916302 177.758749 
L 301.977442 177.457045 
L 302.160863 180.346082 
L 302.344284 179.863811 
L 302.588844 175.927957 
L 302.833405 175.148561 
L 302.894545 174.282302 
L 302.955686 175.079989 
L 303.016826 175.054845 
L 303.383667 172.440084 
L 303.628228 170.028747 
L 303.689368 169.935037 
L 303.872789 171.354412 
L 304.17849 169.695042 
L 304.23963 168.965925 
L 304.484191 170.675579 
L 304.545331 170.120167 
L 304.606471 163.414132 
L 304.667612 164.80379 
L 304.728752 165.722618 
L 304.912173 165.409488 
L 305.034453 162.506732 
L 305.095593 163.080428 
L 305.156733 162.760433 
L 305.340154 162.513591 
L 305.890416 149.741486 
L 305.951556 154.943579 
L 306.012696 152.289966 
L 306.257257 151.428279 
L 306.440678 148.50496 
L 306.624099 148.130119 
L 306.807519 141.990915 
L 306.868659 142.889162 
L 307.05208 142.619457 
L 307.11322 147.592993 
L 307.174361 144.589673 
L 307.235501 145.071943 
L 307.296641 142.896021 
L 307.480062 141.805778 
L 307.602342 135.161441 
L 307.663482 130.233631 
L 307.724622 133.636937 
L 308.030324 129.518226 
L 308.091464 130.6519 
L 308.152604 130.032491 
L 308.336025 130.192482 
L 308.458305 125.943504 
L 308.519445 127.223449 
L 308.764006 129.726214 
L 308.825146 123.904711 
L 308.886287 124.578978 
L 308.947427 123.977853 
L 309.191988 124.172132 
L 309.253128 121.017964 
L 309.314268 121.870507 
L 309.436549 124.633835 
L 309.619969 127.845143 
L 309.681109 134.958031 
L 309.74225 127.008601 
L 309.80339 130.094207 
L 310.109091 138.690463 
L 310.170231 126.569763 
L 310.231371 126.882899 
L 310.292512 128.985678 
L 310.475932 130.647323 
L 310.598213 134.660898 
L 310.659353 132.315841 
L 310.720493 135.38315 
L 310.903914 138.944164 
L 311.087334 135.954564 
L 311.148475 138.144193 
L 311.393035 138.955589 
L 311.576456 145.238795 
L 311.759877 145.115373 
L 311.821017 137.104229 
L 311.882157 139.858413 
L 311.943297 135.659714 
L 312.004438 138.237903 
L 312.248998 136.795671 
L 312.310139 137.184231 
L 312.371279 134.546608 
L 312.432419 137.193373 
L 312.67698 138.996738 
L 312.79926 135.335153 
L 312.860401 136.635678 
L 313.043821 132.951243 
L 313.227242 136.717963 
L 313.288382 136.772821 
L 313.471803 136.781963 
L 313.594083 132.839247 
L 313.960924 136.697396 
L 314.022065 135.85856 
L 314.083205 136.619676 
L 314.144345 135.172879 
L 314.327766 133.634641 
L 314.572327 128.523976 
L 314.755747 128.933104 
L 314.816888 126.037214 
L 314.939168 130.08963 
L 315.000308 129.47023 
L 315.183729 128.97424 
L 315.244869 127.678292 
L 315.306009 128.638254 
L 315.42829 127.166311 
L 315.61171 131.424443 
L 315.672851 128.457694 
L 315.733991 135.981992 
L 315.795131 134.770598 
L 315.856271 135.856276 
L 316.100832 129.40623 
L 316.161972 126.508047 
L 316.223112 129.495363 
L 316.284253 127.02917 
L 316.467673 126.192628 
L 316.528814 124.94011 
L 316.589954 125.712653 
L 316.651094 126.064642 
L 316.712234 125.868067 
L 316.895655 124.798392 
L 316.956795 122.860182 
L 317.017935 122.990462 
L 317.079076 123.01103 
L 317.140216 121.00196 
L 317.323636 118.714043 
L 317.384777 113.957649 
L 317.445917 117.706085 
L 317.507057 115.034186 
L 317.568197 116.542699 
L 317.751618 111.861731 
L 317.812758 113.006829 
L 317.873898 112.945113 
L 317.996179 114.773624 
L 318.24074 115.114175 
L 318.42416 112.305135 
L 318.607581 111.756582 
L 318.668721 115.262741 
L 318.729861 114.865051 
L 318.852142 109.582956 
L 319.157843 107.228757 
L 319.218983 107.480177 
L 319.280123 106.737345 
L 319.646965 115.450161 
L 319.708105 112.145143 
L 319.891525 113.879943 
L 319.952666 116.016998 
L 320.013806 115.319881 
L 320.074946 113.859363 
L 320.380647 121.310518 
L 320.441787 121.061394 
L 320.502928 119.516309 
L 320.564068 123.388165 
L 320.747488 122.750469 
L 320.808629 122.060211 
L 320.869769 118.974605 
L 320.930909 121.09567 
L 321.17547 127.305734 
L 321.23661 123.059027 
L 321.29775 125.244091 
L 321.358891 125.57323 
L 321.420031 127.989132 
L 321.725732 131.31473 
L 321.786872 130.551331 
L 321.848012 131.08388 
L 322.031433 133.911205 
L 322.092573 132.377546 
L 322.275994 143.762274 
L 322.459414 140.624107 
L 322.520555 144.107404 
L 322.581695 142.601171 
L 322.703975 147.241005 
L 322.887396 143.695992 
L 322.948536 136.56482 
L 323.009676 138.315622 
L 323.131957 137.648216 
L 323.315378 135.652854 
L 323.376518 132.532972 
L 323.437658 135.339731 
L 323.498798 132.379829 
L 323.559938 133.163808 
L 323.743359 131.595861 
L 323.865639 137.250512 
L 323.92678 146.386177 
L 323.98792 140.795525 
L 324.171341 147.286718 
L 324.293621 142.082343 
L 324.415901 149.629492 
L 324.599322 150.959728 
L 324.721602 145.807915 
L 324.782743 146.143901 
L 324.843883 150.150615 
L 325.027304 148.349534 
L 325.149584 148.658092 
L 325.271864 150.648875 
L 325.455285 150.594031 
L 325.577565 140.699532 
L 325.638706 142.057197 
L 325.883267 147.972412 
L 325.944407 146.324473 
L 326.005547 147.858121 
L 326.066687 146.475322 
L 326.433529 154.225894 
L 326.494669 150.644311 
L 326.555809 153.339073 
L 326.86151 150.987157 
L 326.98379 164.042674 
L 327.167211 167.210563 
L 327.228351 162.486163 
L 327.289492 162.82901 
L 327.350632 162.833574 
L 327.411772 162.346739 
L 327.595193 163.53527 
L 327.656333 165.788898 
L 327.839753 158.943433 
L 328.023174 158.372032 
L 328.084314 157.684055 
L 328.206595 161.110212 
L 328.267735 160.120539 
L 328.573436 162.6713 
L 328.634576 165.343199 
L 328.695716 164.600367 
L 328.879137 163.548979 
L 328.940277 165.841466 
L 329.001418 164.787788 
L 329.368259 170.947566 
L 329.429399 167.969392 
L 329.490539 170.257308 
L 329.55168 169.04592 
L 329.7351 169.057352 
L 329.79624 167.720255 
L 329.857381 169.354485 
L 329.918521 168.353374 
L 329.979661 167.187706 
L 330.163082 166.383165 
L 330.224222 162.257595 
L 330.285362 162.733016 
L 330.346502 164.37866 
L 330.407643 163.382127 
L 330.652203 160.89993 
L 330.774484 164.470087 
L 331.019045 166.280311 
L 331.080185 169.548766 
L 331.141325 168.687077 
L 331.202465 168.140814 
L 331.263606 170.257308 
L 331.447026 170.177312 
L 331.569307 169.43448 
L 331.691587 168.051676 
L 331.997288 171.224132 
L 332.119569 178.606717 
L 332.302989 177.53933 
L 332.364129 174.945138 
L 332.42527 177.333619 
L 332.48641 173.29034 
L 332.54755 173.6149 
L 332.730971 171.182989 
L 332.853251 165.695188 
L 332.914391 166.30774 
L 332.975532 164.129535 
L 333.158952 163.12386 
L 333.220092 161.007359 
L 333.281233 162.362742 
L 333.342373 162.186748 
L 333.586934 164.083821 
L 333.648074 163.548979 
L 333.770354 170.545299 
L 333.831495 166.931716 
L 334.014915 168.563658 
L 334.137196 165.788898 
L 334.198336 167.64026 
L 334.259476 166.520299 
L 334.504037 164.451802 
L 334.565177 166.71458 
L 334.626317 165.423195 
L 334.687458 163.857537 
L 334.870878 164.2621 
L 334.932018 163.69298 
L 335.115439 167.514551 
L 335.29886 165.633478 
L 335.48228 168.428805 
L 335.543421 167.765969 
L 335.726841 168.671081 
L 335.787982 168.643653 
L 335.849122 168.680223 
L 335.971402 171.630971 
L 336.399384 177.831886 
L 336.643945 173.580612 
L 336.705085 171.089279 
L 337.010786 171.260702 
L 337.071926 172.748649 
L 337.255347 169.537334 
L 337.438767 170.140741 
L 337.561048 169.068779 
L 337.622188 168.227665 
L 337.683328 168.291665 
L 337.927889 169.914463 
L 338.050169 166.554587 
L 338.11131 167.788825 
L 338.29473 166.53173 
L 338.478151 163.114716 
L 338.783852 160.310241 
L 338.967273 162.454169 
L 339.150693 162.861002 
L 339.395254 152.966516 
L 339.578675 152.008835 
L 339.639815 150.781451 
L 339.700955 152.180253 
L 339.762096 151.862553 
L 340.067797 153.457917 
L 340.128937 156.200674 
L 340.190077 154.909291 
L 340.495778 154.577882 
L 340.618059 152.943652 
L 340.679199 153.357359 
L 340.92376 151.583705 
L 340.9849 160.541092 
L 341.04604 160.200528 
L 341.10718 160.008543 
L 341.290601 161.91476 
L 341.351741 164.895217 
L 341.535162 158.029185 
L 341.718582 153.89219 
L 341.779723 154.171036 
L 341.963143 156.708091 
L 342.146564 158.200601 
L 342.207704 157.926333 
L 342.329985 155.169853 
L 342.391125 156.689805 
L 342.574545 156.072688 
L 342.635686 155.300134 
L 342.696826 156.511528 
L 342.757966 154.984728 
L 342.819106 155.974401 
L 343.002527 155.325279 
L 343.124807 152.820231 
L 343.185948 153.005368 
L 343.247088 151.631702 
L 343.430508 150.310606 
L 343.491649 146.96444 
L 343.552789 148.658092 
L 343.675069 145.842203 
L 343.85849 146.363326 
L 343.91963 144.710811 
L 343.98077 148.518668 
L 344.041911 147.286718 
L 344.286471 148.178116 
L 344.347612 147.382711 
L 344.408752 147.480997 
L 344.531032 149.668345 
L 344.714453 148.431819 
L 344.775593 148.962084 
L 344.836733 148.88666 
L 344.959014 146.925586 
L 345.142435 147.289001 
L 345.325855 148.978087 
L 345.386995 148.539248 
L 345.570416 148.196402 
L 345.631556 147.487858 
L 345.814977 141.691487 
L 346.120678 138.029915 
L 346.181818 136.395686 
L 346.242958 137.963633 
L 346.426379 139.081304 
L 346.548659 137.687069 
L 346.6098 138.797881 
L 346.67094 138.635605 
L 347.098921 142.617175 
L 347.343482 137.026522 
L 347.465763 137.435649 
L 347.771464 140.61953 
L 347.893744 140.274402 
L 347.954884 140.918946 
L 348.138305 144.441107 
L 348.321726 142.304039 
L 348.566287 146.16447 
L 348.749707 140.452678 
L 348.810847 141.234363 
L 349.055408 143.631994 
L 349.238829 140.658384 
L 349.42225 141.556641 
L 349.54453 152.097968 
L 349.60567 152.420246 
L 349.66681 154.102472 
L 350.033652 150.701449 
L 350.094792 148.114117 
L 350.278213 148.735811 
L 350.400493 144.555384 
L 350.461633 145.078804 
L 350.522773 143.293725 
L 350.767334 142.486893 
L 350.828475 142.772601 
L 350.950755 145.506217 
L 351.134176 147.709554 
L 351.195316 146.285608 
L 351.317596 149.083222 
L 351.378737 146.354184 
L 351.562157 147.647851 
L 351.745578 145.506217 
L 351.990139 146.518741 
L 352.173559 144.44339 
L 352.2347 146.420465 
L 352.41812 146.669602 
L 352.47926 147.081012 
L 352.540401 145.627355 
L 352.601541 146.169047 
L 352.907242 143.515432 
L 352.968382 142.368039 
L 353.090663 144.242261 
L 353.274083 144.034261 
L 353.335223 144.370247 
L 353.396364 143.314292 
L 353.457504 143.540565 
L 353.518644 143.901698 
L 353.824345 147.826127 
L 353.885485 145.988474 
L 353.946626 148.658092 
L 354.130046 147.995262 
L 354.252327 148.875235 
L 354.313467 148.429536 
L 354.680308 146.358749 
L 354.741448 137.410505 
L 354.802589 138.251623 
L 354.986009 136.361397 
L 355.047149 131.575292 
L 355.10829 131.826712 
L 355.413991 132.398115 
L 355.475131 129.733075 
L 355.536271 131.230164 
L 355.658552 133.678073 
L 355.841972 133.003817 
L 356.025393 131.355866 
L 356.086533 132.743256 
L 356.514515 128.487405 
L 356.759076 126.514906 
L 356.942496 121.463663 
L 357.125917 122.382489 
L 357.187057 123.639584 
L 357.370478 118.73919 
L 357.553898 118.967757 
L 357.615039 115.719866 
L 357.676179 116.679841 
L 357.737319 116.823829 
L 357.798459 119.767728 
L 357.98188 120.87168 
L 358.04302 119.591733 
L 358.10416 119.655732 
L 358.1653 119.623727 
L 358.532142 122.951609 
L 358.654422 121.975643 
L 358.837843 119.927721 
L 358.960123 117.095816 
L 359.021263 117.415812 
L 359.265824 116.663838 
L 359.326965 113.255966 
L 359.388105 114.583909 
L 359.449245 117.271811 
L 359.510385 114.711906 
L 359.693806 113.911936 
L 359.816086 112.136 
L 359.938367 117.495802 
L 360.610909 108.360137 
L 360.672049 109.784085 
L 360.79433 115.447878 
L 360.97775 113.095962 
L 361.100031 115.687872 
L 361.161171 115.399883 
L 361.222311 116.471841 
L 361.528012 113.447951 
L 361.650293 110.648053 
L 361.833713 109.704094 
L 362.017134 106.376212 
L 362.078274 106.824195 
L 362.261695 104.424282 
L 362.322835 105.016265 
L 362.383975 105.656244 
L 362.506256 102.712345 
L 362.811957 102.328364 
L 362.934237 109.208104 
L 363.117658 108.408133 
L 363.178798 108.760122 
L 363.239938 110.47206 
L 363.362219 105.352251 
L 363.545639 102.792347 
L 363.60678 107.608163 
L 363.66792 105.256258 
L 363.7902 103.624311 
L 363.973621 104.40828 
L 364.034761 106.328217 
L 364.095901 103.832299 
L 364.218182 109.640095 
L 364.401602 109.448097 
L 364.462743 105.99223 
L 364.523883 106.34422 
L 364.585023 108.456141 
L 364.646163 108.184143 
L 364.829584 107.368181 
L 364.951864 109.272104 
L 365.013005 104.824268 
L 365.074145 106.184216 
L 365.257565 105.160254 
L 365.379846 110.536059 
L 365.440986 114.407914 
L 365.502126 111.288033 
L 365.685547 109.976081 
L 365.868968 100.760414 
L 365.930108 99.000482 
L 366.113529 99.528466 
L 366.60265 92.312725 
L 366.66379 92.728714 
L 366.724931 93.528685 
L 366.786071 93.288691 
L 366.969492 92.856711 
L 367.030632 93.368692 
L 367.091772 92.280732 
L 367.214052 86.248944 
L 367.397473 84.457018 
L 367.458613 84.984991 
L 367.642034 79.273199 
L 367.825455 80.329167 
L 367.886595 76.777294 
L 367.947735 78.585224 
L 368.070015 76.45731 
L 368.253436 77.193282 
L 368.314576 85.688968 
L 368.375716 82.0891 
L 368.436857 82.057106 
L 368.497997 81.705117 
L 368.681418 84.729006 
L 368.742558 90.984771 
L 368.803698 84.233015 
L 368.864838 87.672892 
L 368.925978 90.552792 
L 369.109399 90.168809 
L 369.170539 97.096547 
L 369.23168 95.89659 
L 369.35396 87.672892 
L 369.537381 87.832883 
L 369.598521 86.120948 
L 369.659661 87.160911 
L 369.781941 87.928889 
L 369.965362 85.224983 
L 370.026502 85.464978 
L 370.454484 96.82456 
L 370.515624 95.768605 
L 370.637904 87.016923 
L 370.821325 87.128919 
L 371.065886 96.040592 
L 371.310447 94.744644 
L 371.677288 85.304985 
L 371.738428 87.416908 
L 371.799569 79.081214 
L 371.860709 81.177133 
L 371.921849 77.849251 
L 372.10527 78.409229 
L 372.349831 75.257354 
L 372.533251 77.609258 
L 372.777812 63.641775 
L 373.083513 63.081799 
L 373.205794 61.49786 
L 373.389214 59.257927 
L 373.450354 54.586101 
L 373.511495 56.794027 
L 373.572635 61.225873 
L 373.633775 59.289932 
L 374.061757 61.849848 
L 374.245177 62.553815 
L 374.428598 71.593486 
L 374.489738 68.249602 
L 374.673159 69.08158 
L 374.856579 61.289859 
L 375.10114 63.897759 
L 375.16228 63.721766 
L 375.223421 64.825729 
L 375.284561 70.873506 
L 375.345701 67.977615 
L 375.529122 68.80958 
L 375.590262 65.54571 
L 375.651402 67.57763 
L 375.712542 67.241644 
L 375.957103 68.137608 
L 376.018243 63.065796 
L 376.079384 65.929693 
L 376.140524 65.929693 
L 376.201664 65.7697 
L 376.385085 61.897845 
L 376.568505 65.241717 
L 376.629646 66.409668 
L 376.813066 66.377673 
L 376.874206 62.329812 
L 376.935347 64.10576 
L 377.302188 52.154182 
L 377.485609 65.529708 
L 377.669029 60.089903 
L 377.85245 67.657632 
L 377.91359 64.601738 
L 378.097011 63.465781 
L 378.158151 66.329678 
L 378.219291 65.449704 
L 378.341572 60.777867 
L 378.524992 61.88183 
L 378.586133 58.185969 
L 378.647273 59.289932 
L 378.708413 59.177925 
L 378.769553 56.730016 
L 379.014114 55.130075 
L 379.075254 58.745959 
L 379.136394 56.314039 
L 379.380955 58.84195 
L 379.442096 59.513923 
L 379.503236 58.233965 
L 379.625516 60.089903 
L 379.808937 61.049878 
L 379.870077 64.569744 
L 379.931217 62.617814 
L 379.992357 60.601896 
L 380.053498 62.185823 
L 380.236918 65.529708 
L 380.359199 62.937798 
L 380.420339 63.721766 
L 380.481479 62.9538 
L 380.78718 63.753771 
L 380.84832 61.113864 
L 380.909461 63.017799 
L 381.092881 66.553669 
L 381.154022 66.377673 
L 381.215162 64.249748 
L 381.276302 65.001724 
L 381.520863 67.385633 
L 381.582003 65.865694 
L 381.765424 72.185458 
L 382.437966 54.730089 
L 382.499106 72.105467 
L 382.560247 65.369715 
L 382.804807 70.345535 
L 382.865948 69.88155 
L 382.927088 70.249529 
L 382.988228 71.577484 
L 383.049368 71.129503 
L 383.232789 72.889436 
L 383.355069 86.568941 
L 383.41621 81.737111 
L 383.47735 83.961028 
L 383.721911 78.793223 
L 383.783051 87.240913 
L 383.844191 81.625115 
L 383.905331 84.377016 
L 384.149892 81.001139 
L 384.211032 81.529123 
L 384.333313 90.600789 
L 384.516733 115.495875 
L 384.577874 89.512827 
L 384.639014 95.9446 
L 384.700154 87.720889 
L 384.761294 87.816894 
L 384.944715 88.040884 
L 385.005855 91.048769 
L 385.066995 90.920772 
L 385.128136 87.304912 
L 385.189276 92.936702 
L 385.433837 88.488866 
L 385.494977 85.27298 
L 385.556117 90.856784 
L 385.617257 88.424867 
L 385.800678 80.761145 
L 385.861818 81.80111 
L 385.922958 81.289129 
L 385.984099 82.233088 
L 386.045239 87.752894 
L 386.228659 85.416981 
L 386.2898 85.880966 
L 386.35094 85.480981 
L 386.41208 86.088954 
L 386.47322 80.985137 
L 386.717781 86.760926 
L 386.901202 94.472644 
L 387.206903 88.504868 
L 387.329183 91.288764 
L 387.512604 86.920918 
L 387.573744 89.976811 
L 387.634884 89.224837 
L 387.696025 89.800818 
L 387.757165 88.440869 
L 387.940586 90.008806 
L 388.001726 89.144848 
L 388.185146 80.56916 
L 388.368567 78.361233 
L 388.429707 82.649076 
L 388.490847 80.201169 
L 388.613128 73.705409 
L 388.857689 74.025393 
L 388.918829 70.281536 
L 388.979969 72.329459 
L 389.041109 73.513411 
L 389.22453 73.753406 
L 389.34681 81.097131 
L 389.407951 81.273126 
L 389.652512 89.080849 
L 389.897072 76.569306 
L 390.080493 76.45731 
L 390.141633 79.561189 
L 390.202773 76.553303 
L 390.325054 78.025246 
L 390.508475 78.505234 
L 390.569615 77.289275 
L 390.753035 82.825071 
L 390.936456 76.921284 
L 391.181017 82.985064 
L 391.486718 89.576826 
L 391.547858 88.056886 
L 391.608998 93.032693 
L 391.792419 95.640606 
L 391.853559 95.448608 
L 391.9147 95.656609 
L 391.97584 92.888705 
L 392.281541 96.152588 
L 392.342681 93.560677 
L 392.648382 103.11233 
L 392.709522 98.088515 
L 392.892943 109.60809 
L 393.076364 108.936117 
L 393.137504 106.408207 
L 393.198644 106.776198 
L 393.320924 113.367962 
L 393.565485 109.83208 
L 393.626626 115.127896 
L 393.687766 111.992011 
L 393.932327 104.856273 
L 394.054607 113.623946 
L 394.115747 117.223815 
L 394.176888 115.623873 
L 394.360308 112.935971 
L 394.482589 115.287887 
L 394.604869 112.855981 
L 394.78829 118.279782 
L 394.91057 113.815944 
L 394.97171 117.223815 
L 395.032851 116.583836 
L 395.277411 115.255893 
L 395.399692 109.144118 
L 395.460832 113.687945 
L 395.705393 113.047966 
L 395.766533 116.919823 
L 395.888814 111.76802 
L 396.072234 112.311994 
L 396.133374 111.048039 
L 396.316795 103.496313 
L 396.500216 103.46432 
L 396.561356 106.040226 
L 396.622496 105.192259 
L 396.683636 105.032255 
L 396.744777 103.704313 
L 396.928197 104.232284 
L 397.111618 98.456507 
L 397.172758 97.144556 
L 397.356179 97.800526 
L 397.417319 98.888486 
L 397.478459 96.920553 
L 397.539599 98.536497 
L 397.78416 97.68853 
L 397.8453 99.464467 
L 397.967581 91.736746 
L 398.028721 93.240694 
L 398.212142 90.616791 
L 398.273282 92.072732 
L 398.334422 90.920772 
L 398.395562 91.368765 
L 398.456703 93.032693 
L 398.640123 92.936702 
L 398.701263 92.344731 
L 398.884684 87.912885 
L 399.312666 99.272469 
L 399.496086 99.288471 
L 399.557227 101.032401 
L 399.740647 116.903831 
L 399.924068 116.935825 
L 399.985208 116.567845 
L 400.046348 114.967903 
L 400.168629 117.895787 
L 400.352049 118.48777 
L 400.47433 117.719793 
L 400.53547 118.935752 
L 400.59661 123.287595 
L 401.024592 115.863868 
L 401.208012 113.895933 
L 401.391433 107.80016 
L 401.452573 108.184143 
L 401.697134 107.928159 
L 401.819414 111.128042 
L 401.880555 110.824048 
L 402.063975 110.504065 
L 402.125116 108.488135 
L 402.186256 108.856127 
L 402.247396 109.688092 
L 402.308536 109.640095 
L 402.491957 109.384099 
L 402.675378 112.967977 
L 402.736518 112.695977 
L 402.919938 113.687945 
L 402.981079 115.38388 
L 403.042219 113.28796 
L 403.103359 113.783939 
L 403.164499 118.631758 
L 403.34792 118.48777 
L 403.40906 118.647761 
L 403.592481 114.503919 
L 403.837042 114.663911 
L 403.898182 115.927867 
L 404.020462 112.903977 
L 404.203883 112.487989 
L 404.448444 109.016119 
L 404.631864 109.368108 
L 404.754145 107.288179 
L 404.815285 107.560166 
L 405.120986 112.375993 
L 405.182126 100.456434 
L 405.243267 102.760341 
L 405.304407 100.584421 
L 405.487827 100.23243 
L 405.548968 97.608528 
L 405.610108 99.592463 
L 405.976949 94.120655 
L 406.038089 93.35269 
L 406.09923 93.656682 
L 406.16037 94.840635 
L 406.34379 94.264656 
L 406.404931 91.880747 
L 406.466071 92.728714 
L 406.527211 92.520714 
L 406.588351 93.256696 
L 406.771772 93.112695 
L 406.894052 93.57668 
L 406.955193 95.464613 
L 407.016333 95.432606 
L 407.199753 96.696561 
L 407.322034 98.232504 
L 407.383174 97.46454 
L 407.444314 94.968634 
L 407.688875 94.648638 
L 407.750015 94.760634 
L 407.811156 95.688603 
L 407.872296 99.864452 
L 408.055716 103.048331 
L 408.300277 83.097058 
L 408.483698 82.985064 
L 408.544838 86.408937 
L 408.605978 85.128992 
L 408.728259 84.217025 
L 408.91168 88.664861 
L 409.03396 85.384976 
L 409.15624 87.352909 
L 409.339661 86.952924 
L 409.767643 83.257062 
L 409.828783 78.969218 
L 409.889923 79.529196 
L 409.951063 80.425159 
L 410.012203 78.681229 
L 410.195624 79.561189 
L 410.256764 78.201242 
L 410.440185 80.393165 
L 410.623606 79.929182 
L 410.684746 78.569233 
L 410.745886 84.393019 
L 410.807026 82.66508 
L 410.868166 85.096985 
L 411.112727 85.752967 
L 411.296148 93.640679 
L 411.540709 90.792785 
L 411.601849 91.480761 
L 411.662989 89.544834 
L 411.724129 95.89659 
L 411.90755 94.952631 
L 411.96869 96.776563 
L 412.029831 96.568576 
L 412.090971 91.592756 
L 412.152111 91.736746 
L 412.335532 91.096766 
L 412.396672 88.168882 
L 412.457812 89.112841 
L 412.580092 89.480834 
L 412.763513 89.000847 
L 412.824653 90.040811 
L 412.885794 88.72886 
L 413.008074 92.616718 
L 413.191495 91.288764 
L 413.313775 92.472717 
L 413.436055 87.592902 
L 413.680616 85.144994 
L 413.864037 80.93714 
L 414.047458 82.009098 
L 414.169738 80.409156 
L 414.292018 82.345097 
L 414.536579 80.857149 
L 414.59772 79.257208 
L 414.65886 80.969145 
L 414.72 80.649149 
" style="fill:none;stroke:#e24a33;stroke-linecap:square;stroke-width:1.5;"/>
   </g>
   <g id="patch_3">
    <path d="M 57.6 276.48 
L 57.6 41.472 
" style="fill:none;stroke:#ffffff;stroke-linecap:square;stroke-linejoin:miter;"/>
   </g>
   <g id="patch_4">
    <path d="M 414.72 276.48 
L 414.72 41.472 
" style="fill:none;stroke:#ffffff;stroke-linecap:square;stroke-linejoin:miter;"/>
   </g>
   <g id="patch_5">
    <path d="M 57.6 276.48 
L 414.72 276.48 
" style="fill:none;stroke:#ffffff;stroke-linecap:square;stroke-linejoin:miter;"/>
   </g>
   <g id="patch_6">
    <path d="M 57.6 41.472 
L 414.72 41.472 
" style="fill:none;stroke:#ffffff;stroke-linecap:square;stroke-linejoin:miter;"/>
   </g>
  </g>
 </g>
 <defs>
  <clipPath id="p634852e62c">
   <rect height="235.008" width="357.12" x="57.6" y="41.472"/>
  </clipPath>
 </defs>
</svg>
