<?xml version="1.0" encoding="utf-8" standalone="no"?>
<!DOCTYPE svg PUBLIC "-//W3C//DTD SVG 1.1//EN"
  "http://www.w3.org/Graphics/SVG/1.1/DTD/svg11.dtd">
<!-- Created with matplotlib (http://matplotlib.org/) -->
<svg height="345pt" version="1.1" viewBox="0 0 460 345" width="460pt" xmlns="http://www.w3.org/2000/svg" xmlns:xlink="http://www.w3.org/1999/xlink">
 <defs>
  <style type="text/css">
*{stroke-linecap:butt;stroke-linejoin:round;}
  </style>
 </defs>
 <g id="figure_1">
  <g id="patch_1">
   <path d="M 0 345.6 
L 460.8 345.6 
L 460.8 0 
L 0 0 
z
" style="fill:#ffffff;"/>
  </g>
  <g id="axes_1">
   <g id="patch_2">
    <path d="M 57.6 276.48 
L 414.72 276.48 
L 414.72 41.472 
L 57.6 41.472 
z
" style="fill:#e5e5e5;"/>
   </g>
   <g id="matplotlib.axis_1">
    <g id="xtick_1">
     <g id="line2d_1">
      <path clip-path="url(#p2e962f99dc)" d="M 86.389757 276.48 
L 86.389757 41.472 
" style="fill:none;stroke:#ffffff;stroke-linecap:square;stroke-width:0.8;"/>
     </g>
     <g id="line2d_2">
      <defs>
       <path d="M 0 0 
L 0 3.5 
" id="m9e096eede5" style="stroke:#555555;stroke-width:0.8;"/>
      </defs>
      <g>
       <use style="fill:#555555;stroke:#555555;stroke-width:0.8;" x="86.389757" xlink:href="#m9e096eede5" y="276.48"/>
      </g>
     </g>
     <g id="text_1">
      <!-- 2012-10 -->
      <defs>
       <path d="M 19.1875 8.296875 
L 53.609375 8.296875 
L 53.609375 0 
L 7.328125 0 
L 7.328125 8.296875 
Q 12.9375 14.109375 22.625 23.890625 
Q 32.328125 33.6875 34.8125 36.53125 
Q 39.546875 41.84375 41.421875 45.53125 
Q 43.3125 49.21875 43.3125 52.78125 
Q 43.3125 58.59375 39.234375 62.25 
Q 35.15625 65.921875 28.609375 65.921875 
Q 23.96875 65.921875 18.8125 64.3125 
Q 13.671875 62.703125 7.8125 59.421875 
L 7.8125 69.390625 
Q 13.765625 71.78125 18.9375 73 
Q 24.125 74.21875 28.421875 74.21875 
Q 39.75 74.21875 46.484375 68.546875 
Q 53.21875 62.890625 53.21875 53.421875 
Q 53.21875 48.921875 51.53125 44.890625 
Q 49.859375 40.875 45.40625 35.40625 
Q 44.1875 33.984375 37.640625 27.21875 
Q 31.109375 20.453125 19.1875 8.296875 
z
" id="DejaVuSans-32"/>
       <path d="M 31.78125 66.40625 
Q 24.171875 66.40625 20.328125 58.90625 
Q 16.5 51.421875 16.5 36.375 
Q 16.5 21.390625 20.328125 13.890625 
Q 24.171875 6.390625 31.78125 6.390625 
Q 39.453125 6.390625 43.28125 13.890625 
Q 47.125 21.390625 47.125 36.375 
Q 47.125 51.421875 43.28125 58.90625 
Q 39.453125 66.40625 31.78125 66.40625 
z
M 31.78125 74.21875 
Q 44.046875 74.21875 50.515625 64.515625 
Q 56.984375 54.828125 56.984375 36.375 
Q 56.984375 17.96875 50.515625 8.265625 
Q 44.046875 -1.421875 31.78125 -1.421875 
Q 19.53125 -1.421875 13.0625 8.265625 
Q 6.59375 17.96875 6.59375 36.375 
Q 6.59375 54.828125 13.0625 64.515625 
Q 19.53125 74.21875 31.78125 74.21875 
z
" id="DejaVuSans-30"/>
       <path d="M 12.40625 8.296875 
L 28.515625 8.296875 
L 28.515625 63.921875 
L 10.984375 60.40625 
L 10.984375 69.390625 
L 28.421875 72.90625 
L 38.28125 72.90625 
L 38.28125 8.296875 
L 54.390625 8.296875 
L 54.390625 0 
L 12.40625 0 
z
" id="DejaVuSans-31"/>
       <path d="M 4.890625 31.390625 
L 31.203125 31.390625 
L 31.203125 23.390625 
L 4.890625 23.390625 
z
" id="DejaVuSans-2d"/>
      </defs>
      <g style="fill:#555555;" transform="translate(49.164936 310.951846)rotate(-30)scale(0.1 -0.1)">
       <use xlink:href="#DejaVuSans-32"/>
       <use x="63.623047" xlink:href="#DejaVuSans-30"/>
       <use x="127.246094" xlink:href="#DejaVuSans-31"/>
       <use x="190.869141" xlink:href="#DejaVuSans-32"/>
       <use x="254.492188" xlink:href="#DejaVuSans-2d"/>
       <use x="290.576172" xlink:href="#DejaVuSans-31"/>
       <use x="354.199219" xlink:href="#DejaVuSans-30"/>
      </g>
     </g>
    </g>
    <g id="xtick_2">
     <g id="line2d_3">
      <path clip-path="url(#p2e962f99dc)" d="M 124.917226 276.48 
L 124.917226 41.472 
" style="fill:none;stroke:#ffffff;stroke-linecap:square;stroke-width:0.8;"/>
     </g>
     <g id="line2d_4">
      <g>
       <use style="fill:#555555;stroke:#555555;stroke-width:0.8;" x="124.917226" xlink:href="#m9e096eede5" y="276.48"/>
      </g>
     </g>
     <g id="text_2">
      <!-- 2013-04 -->
      <defs>
       <path d="M 40.578125 39.3125 
Q 47.65625 37.796875 51.625 33 
Q 55.609375 28.21875 55.609375 21.1875 
Q 55.609375 10.40625 48.1875 4.484375 
Q 40.765625 -1.421875 27.09375 -1.421875 
Q 22.515625 -1.421875 17.65625 -0.515625 
Q 12.796875 0.390625 7.625 2.203125 
L 7.625 11.71875 
Q 11.71875 9.328125 16.59375 8.109375 
Q 21.484375 6.890625 26.8125 6.890625 
Q 36.078125 6.890625 40.9375 10.546875 
Q 45.796875 14.203125 45.796875 21.1875 
Q 45.796875 27.640625 41.28125 31.265625 
Q 36.765625 34.90625 28.71875 34.90625 
L 20.21875 34.90625 
L 20.21875 43.015625 
L 29.109375 43.015625 
Q 36.375 43.015625 40.234375 45.921875 
Q 44.09375 48.828125 44.09375 54.296875 
Q 44.09375 59.90625 40.109375 62.90625 
Q 36.140625 65.921875 28.71875 65.921875 
Q 24.65625 65.921875 20.015625 65.03125 
Q 15.375 64.15625 9.8125 62.3125 
L 9.8125 71.09375 
Q 15.4375 72.65625 20.34375 73.4375 
Q 25.25 74.21875 29.59375 74.21875 
Q 40.828125 74.21875 47.359375 69.109375 
Q 53.90625 64.015625 53.90625 55.328125 
Q 53.90625 49.265625 50.4375 45.09375 
Q 46.96875 40.921875 40.578125 39.3125 
z
" id="DejaVuSans-33"/>
       <path d="M 37.796875 64.3125 
L 12.890625 25.390625 
L 37.796875 25.390625 
z
M 35.203125 72.90625 
L 47.609375 72.90625 
L 47.609375 25.390625 
L 58.015625 25.390625 
L 58.015625 17.1875 
L 47.609375 17.1875 
L 47.609375 0 
L 37.796875 0 
L 37.796875 17.1875 
L 4.890625 17.1875 
L 4.890625 26.703125 
z
" id="DejaVuSans-34"/>
      </defs>
      <g style="fill:#555555;" transform="translate(87.692405 310.951846)rotate(-30)scale(0.1 -0.1)">
       <use xlink:href="#DejaVuSans-32"/>
       <use x="63.623047" xlink:href="#DejaVuSans-30"/>
       <use x="127.246094" xlink:href="#DejaVuSans-31"/>
       <use x="190.869141" xlink:href="#DejaVuSans-33"/>
       <use x="254.492188" xlink:href="#DejaVuSans-2d"/>
       <use x="290.576172" xlink:href="#DejaVuSans-30"/>
       <use x="354.199219" xlink:href="#DejaVuSans-34"/>
      </g>
     </g>
    </g>
    <g id="xtick_3">
     <g id="line2d_5">
      <path clip-path="url(#p2e962f99dc)" d="M 163.656384 276.48 
L 163.656384 41.472 
" style="fill:none;stroke:#ffffff;stroke-linecap:square;stroke-width:0.8;"/>
     </g>
     <g id="line2d_6">
      <g>
       <use style="fill:#555555;stroke:#555555;stroke-width:0.8;" x="163.656384" xlink:href="#m9e096eede5" y="276.48"/>
      </g>
     </g>
     <g id="text_3">
      <!-- 2013-10 -->
      <g style="fill:#555555;" transform="translate(126.431563 310.951846)rotate(-30)scale(0.1 -0.1)">
       <use xlink:href="#DejaVuSans-32"/>
       <use x="63.623047" xlink:href="#DejaVuSans-30"/>
       <use x="127.246094" xlink:href="#DejaVuSans-31"/>
       <use x="190.869141" xlink:href="#DejaVuSans-33"/>
       <use x="254.492188" xlink:href="#DejaVuSans-2d"/>
       <use x="290.576172" xlink:href="#DejaVuSans-31"/>
       <use x="354.199219" xlink:href="#DejaVuSans-30"/>
      </g>
     </g>
    </g>
    <g id="xtick_4">
     <g id="line2d_7">
      <path clip-path="url(#p2e962f99dc)" d="M 202.183853 276.48 
L 202.183853 41.472 
" style="fill:none;stroke:#ffffff;stroke-linecap:square;stroke-width:0.8;"/>
     </g>
     <g id="line2d_8">
      <g>
       <use style="fill:#555555;stroke:#555555;stroke-width:0.8;" x="202.183853" xlink:href="#m9e096eede5" y="276.48"/>
      </g>
     </g>
     <g id="text_4">
      <!-- 2014-04 -->
      <g style="fill:#555555;" transform="translate(164.959032 310.951846)rotate(-30)scale(0.1 -0.1)">
       <use xlink:href="#DejaVuSans-32"/>
       <use x="63.623047" xlink:href="#DejaVuSans-30"/>
       <use x="127.246094" xlink:href="#DejaVuSans-31"/>
       <use x="190.869141" xlink:href="#DejaVuSans-34"/>
       <use x="254.492188" xlink:href="#DejaVuSans-2d"/>
       <use x="290.576172" xlink:href="#DejaVuSans-30"/>
       <use x="354.199219" xlink:href="#DejaVuSans-34"/>
      </g>
     </g>
    </g>
    <g id="xtick_5">
     <g id="line2d_9">
      <path clip-path="url(#p2e962f99dc)" d="M 240.923011 276.48 
L 240.923011 41.472 
" style="fill:none;stroke:#ffffff;stroke-linecap:square;stroke-width:0.8;"/>
     </g>
     <g id="line2d_10">
      <g>
       <use style="fill:#555555;stroke:#555555;stroke-width:0.8;" x="240.923011" xlink:href="#m9e096eede5" y="276.48"/>
      </g>
     </g>
     <g id="text_5">
      <!-- 2014-10 -->
      <g style="fill:#555555;" transform="translate(203.69819 310.951846)rotate(-30)scale(0.1 -0.1)">
       <use xlink:href="#DejaVuSans-32"/>
       <use x="63.623047" xlink:href="#DejaVuSans-30"/>
       <use x="127.246094" xlink:href="#DejaVuSans-31"/>
       <use x="190.869141" xlink:href="#DejaVuSans-34"/>
       <use x="254.492188" xlink:href="#DejaVuSans-2d"/>
       <use x="290.576172" xlink:href="#DejaVuSans-31"/>
       <use x="354.199219" xlink:href="#DejaVuSans-30"/>
      </g>
     </g>
    </g>
    <g id="xtick_6">
     <g id="line2d_11">
      <path clip-path="url(#p2e962f99dc)" d="M 279.45048 276.48 
L 279.45048 41.472 
" style="fill:none;stroke:#ffffff;stroke-linecap:square;stroke-width:0.8;"/>
     </g>
     <g id="line2d_12">
      <g>
       <use style="fill:#555555;stroke:#555555;stroke-width:0.8;" x="279.45048" xlink:href="#m9e096eede5" y="276.48"/>
      </g>
     </g>
     <g id="text_6">
      <!-- 2015-04 -->
      <defs>
       <path d="M 10.796875 72.90625 
L 49.515625 72.90625 
L 49.515625 64.59375 
L 19.828125 64.59375 
L 19.828125 46.734375 
Q 21.96875 47.46875 24.109375 47.828125 
Q 26.265625 48.1875 28.421875 48.1875 
Q 40.625 48.1875 47.75 41.5 
Q 54.890625 34.8125 54.890625 23.390625 
Q 54.890625 11.625 47.5625 5.09375 
Q 40.234375 -1.421875 26.90625 -1.421875 
Q 22.3125 -1.421875 17.546875 -0.640625 
Q 12.796875 0.140625 7.71875 1.703125 
L 7.71875 11.625 
Q 12.109375 9.234375 16.796875 8.0625 
Q 21.484375 6.890625 26.703125 6.890625 
Q 35.15625 6.890625 40.078125 11.328125 
Q 45.015625 15.765625 45.015625 23.390625 
Q 45.015625 31 40.078125 35.4375 
Q 35.15625 39.890625 26.703125 39.890625 
Q 22.75 39.890625 18.8125 39.015625 
Q 14.890625 38.140625 10.796875 36.28125 
z
" id="DejaVuSans-35"/>
      </defs>
      <g style="fill:#555555;" transform="translate(242.225659 310.951846)rotate(-30)scale(0.1 -0.1)">
       <use xlink:href="#DejaVuSans-32"/>
       <use x="63.623047" xlink:href="#DejaVuSans-30"/>
       <use x="127.246094" xlink:href="#DejaVuSans-31"/>
       <use x="190.869141" xlink:href="#DejaVuSans-35"/>
       <use x="254.492188" xlink:href="#DejaVuSans-2d"/>
       <use x="290.576172" xlink:href="#DejaVuSans-30"/>
       <use x="354.199219" xlink:href="#DejaVuSans-34"/>
      </g>
     </g>
    </g>
    <g id="xtick_7">
     <g id="line2d_13">
      <path clip-path="url(#p2e962f99dc)" d="M 318.189638 276.48 
L 318.189638 41.472 
" style="fill:none;stroke:#ffffff;stroke-linecap:square;stroke-width:0.8;"/>
     </g>
     <g id="line2d_14">
      <g>
       <use style="fill:#555555;stroke:#555555;stroke-width:0.8;" x="318.189638" xlink:href="#m9e096eede5" y="276.48"/>
      </g>
     </g>
     <g id="text_7">
      <!-- 2015-10 -->
      <g style="fill:#555555;" transform="translate(280.964818 310.951846)rotate(-30)scale(0.1 -0.1)">
       <use xlink:href="#DejaVuSans-32"/>
       <use x="63.623047" xlink:href="#DejaVuSans-30"/>
       <use x="127.246094" xlink:href="#DejaVuSans-31"/>
       <use x="190.869141" xlink:href="#DejaVuSans-35"/>
       <use x="254.492188" xlink:href="#DejaVuSans-2d"/>
       <use x="290.576172" xlink:href="#DejaVuSans-31"/>
       <use x="354.199219" xlink:href="#DejaVuSans-30"/>
      </g>
     </g>
    </g>
    <g id="xtick_8">
     <g id="line2d_15">
      <path clip-path="url(#p2e962f99dc)" d="M 356.928797 276.48 
L 356.928797 41.472 
" style="fill:none;stroke:#ffffff;stroke-linecap:square;stroke-width:0.8;"/>
     </g>
     <g id="line2d_16">
      <g>
       <use style="fill:#555555;stroke:#555555;stroke-width:0.8;" x="356.928797" xlink:href="#m9e096eede5" y="276.48"/>
      </g>
     </g>
     <g id="text_8">
      <!-- 2016-04 -->
      <defs>
       <path d="M 33.015625 40.375 
Q 26.375 40.375 22.484375 35.828125 
Q 18.609375 31.296875 18.609375 23.390625 
Q 18.609375 15.53125 22.484375 10.953125 
Q 26.375 6.390625 33.015625 6.390625 
Q 39.65625 6.390625 43.53125 10.953125 
Q 47.40625 15.53125 47.40625 23.390625 
Q 47.40625 31.296875 43.53125 35.828125 
Q 39.65625 40.375 33.015625 40.375 
z
M 52.59375 71.296875 
L 52.59375 62.3125 
Q 48.875 64.0625 45.09375 64.984375 
Q 41.3125 65.921875 37.59375 65.921875 
Q 27.828125 65.921875 22.671875 59.328125 
Q 17.53125 52.734375 16.796875 39.40625 
Q 19.671875 43.65625 24.015625 45.921875 
Q 28.375 48.1875 33.59375 48.1875 
Q 44.578125 48.1875 50.953125 41.515625 
Q 57.328125 34.859375 57.328125 23.390625 
Q 57.328125 12.15625 50.6875 5.359375 
Q 44.046875 -1.421875 33.015625 -1.421875 
Q 20.359375 -1.421875 13.671875 8.265625 
Q 6.984375 17.96875 6.984375 36.375 
Q 6.984375 53.65625 15.1875 63.9375 
Q 23.390625 74.21875 37.203125 74.21875 
Q 40.921875 74.21875 44.703125 73.484375 
Q 48.484375 72.75 52.59375 71.296875 
z
" id="DejaVuSans-36"/>
      </defs>
      <g style="fill:#555555;" transform="translate(319.703976 310.951846)rotate(-30)scale(0.1 -0.1)">
       <use xlink:href="#DejaVuSans-32"/>
       <use x="63.623047" xlink:href="#DejaVuSans-30"/>
       <use x="127.246094" xlink:href="#DejaVuSans-31"/>
       <use x="190.869141" xlink:href="#DejaVuSans-36"/>
       <use x="254.492188" xlink:href="#DejaVuSans-2d"/>
       <use x="290.576172" xlink:href="#DejaVuSans-30"/>
       <use x="354.199219" xlink:href="#DejaVuSans-34"/>
      </g>
     </g>
    </g>
    <g id="xtick_9">
     <g id="line2d_17">
      <path clip-path="url(#p2e962f99dc)" d="M 395.667955 276.48 
L 395.667955 41.472 
" style="fill:none;stroke:#ffffff;stroke-linecap:square;stroke-width:0.8;"/>
     </g>
     <g id="line2d_18">
      <g>
       <use style="fill:#555555;stroke:#555555;stroke-width:0.8;" x="395.667955" xlink:href="#m9e096eede5" y="276.48"/>
      </g>
     </g>
     <g id="text_9">
      <!-- 2016-10 -->
      <g style="fill:#555555;" transform="translate(358.443134 310.951846)rotate(-30)scale(0.1 -0.1)">
       <use xlink:href="#DejaVuSans-32"/>
       <use x="63.623047" xlink:href="#DejaVuSans-30"/>
       <use x="127.246094" xlink:href="#DejaVuSans-31"/>
       <use x="190.869141" xlink:href="#DejaVuSans-36"/>
       <use x="254.492188" xlink:href="#DejaVuSans-2d"/>
       <use x="290.576172" xlink:href="#DejaVuSans-31"/>
       <use x="354.199219" xlink:href="#DejaVuSans-30"/>
      </g>
     </g>
    </g>
    <g id="text_10">
     <!-- Date -->
     <defs>
      <path d="M 19.671875 64.796875 
L 19.671875 8.109375 
L 31.59375 8.109375 
Q 46.6875 8.109375 53.6875 14.9375 
Q 60.6875 21.78125 60.6875 36.53125 
Q 60.6875 51.171875 53.6875 57.984375 
Q 46.6875 64.796875 31.59375 64.796875 
z
M 9.8125 72.90625 
L 30.078125 72.90625 
Q 51.265625 72.90625 61.171875 64.09375 
Q 71.09375 55.28125 71.09375 36.53125 
Q 71.09375 17.671875 61.125 8.828125 
Q 51.171875 0 30.078125 0 
L 9.8125 0 
z
" id="DejaVuSans-44"/>
      <path d="M 34.28125 27.484375 
Q 23.390625 27.484375 19.1875 25 
Q 14.984375 22.515625 14.984375 16.5 
Q 14.984375 11.71875 18.140625 8.90625 
Q 21.296875 6.109375 26.703125 6.109375 
Q 34.1875 6.109375 38.703125 11.40625 
Q 43.21875 16.703125 43.21875 25.484375 
L 43.21875 27.484375 
z
M 52.203125 31.203125 
L 52.203125 0 
L 43.21875 0 
L 43.21875 8.296875 
Q 40.140625 3.328125 35.546875 0.953125 
Q 30.953125 -1.421875 24.3125 -1.421875 
Q 15.921875 -1.421875 10.953125 3.296875 
Q 6 8.015625 6 15.921875 
Q 6 25.140625 12.171875 29.828125 
Q 18.359375 34.515625 30.609375 34.515625 
L 43.21875 34.515625 
L 43.21875 35.40625 
Q 43.21875 41.609375 39.140625 45 
Q 35.0625 48.390625 27.6875 48.390625 
Q 23 48.390625 18.546875 47.265625 
Q 14.109375 46.140625 10.015625 43.890625 
L 10.015625 52.203125 
Q 14.9375 54.109375 19.578125 55.046875 
Q 24.21875 56 28.609375 56 
Q 40.484375 56 46.34375 49.84375 
Q 52.203125 43.703125 52.203125 31.203125 
z
" id="DejaVuSans-61"/>
      <path d="M 18.3125 70.21875 
L 18.3125 54.6875 
L 36.8125 54.6875 
L 36.8125 47.703125 
L 18.3125 47.703125 
L 18.3125 18.015625 
Q 18.3125 11.328125 20.140625 9.421875 
Q 21.96875 7.515625 27.59375 7.515625 
L 36.8125 7.515625 
L 36.8125 0 
L 27.59375 0 
Q 17.1875 0 13.234375 3.875 
Q 9.28125 7.765625 9.28125 18.015625 
L 9.28125 47.703125 
L 2.6875 47.703125 
L 2.6875 54.6875 
L 9.28125 54.6875 
L 9.28125 70.21875 
z
" id="DejaVuSans-74"/>
      <path d="M 56.203125 29.59375 
L 56.203125 25.203125 
L 14.890625 25.203125 
Q 15.484375 15.921875 20.484375 11.0625 
Q 25.484375 6.203125 34.421875 6.203125 
Q 39.59375 6.203125 44.453125 7.46875 
Q 49.3125 8.734375 54.109375 11.28125 
L 54.109375 2.78125 
Q 49.265625 0.734375 44.1875 -0.34375 
Q 39.109375 -1.421875 33.890625 -1.421875 
Q 20.796875 -1.421875 13.15625 6.1875 
Q 5.515625 13.8125 5.515625 26.8125 
Q 5.515625 40.234375 12.765625 48.109375 
Q 20.015625 56 32.328125 56 
Q 43.359375 56 49.78125 48.890625 
Q 56.203125 41.796875 56.203125 29.59375 
z
M 47.21875 32.234375 
Q 47.125 39.59375 43.09375 43.984375 
Q 39.0625 48.390625 32.421875 48.390625 
Q 24.90625 48.390625 20.390625 44.140625 
Q 15.875 39.890625 15.1875 32.171875 
z
" id="DejaVuSans-65"/>
     </defs>
     <g style="fill:#555555;" transform="translate(221.819063 325.871033)scale(0.12 -0.12)">
      <use xlink:href="#DejaVuSans-44"/>
      <use x="77.001953" xlink:href="#DejaVuSans-61"/>
      <use x="138.28125" xlink:href="#DejaVuSans-74"/>
      <use x="177.490234" xlink:href="#DejaVuSans-65"/>
     </g>
    </g>
   </g>
   <g id="matplotlib.axis_2">
    <g id="ytick_1">
     <g id="line2d_19">
      <path clip-path="url(#p2e962f99dc)" d="M 57.6 262.243878 
L 414.72 262.243878 
" style="fill:none;stroke:#ffffff;stroke-linecap:square;stroke-width:0.8;"/>
     </g>
     <g id="line2d_20">
      <defs>
       <path d="M 0 0 
L -3.5 0 
" id="m8b730a768c" style="stroke:#555555;stroke-width:0.8;"/>
      </defs>
      <g>
       <use style="fill:#555555;stroke:#555555;stroke-width:0.8;" x="57.6" xlink:href="#m8b730a768c" y="262.243878"/>
      </g>
     </g>
     <g id="text_11">
      <!-- 20 -->
      <g style="fill:#555555;" transform="translate(37.875 266.043097)scale(0.1 -0.1)">
       <use xlink:href="#DejaVuSans-32"/>
       <use x="63.623047" xlink:href="#DejaVuSans-30"/>
      </g>
     </g>
    </g>
    <g id="ytick_2">
     <g id="line2d_21">
      <path clip-path="url(#p2e962f99dc)" d="M 57.6 225.223667 
L 414.72 225.223667 
" style="fill:none;stroke:#ffffff;stroke-linecap:square;stroke-width:0.8;"/>
     </g>
     <g id="line2d_22">
      <g>
       <use style="fill:#555555;stroke:#555555;stroke-width:0.8;" x="57.6" xlink:href="#m8b730a768c" y="225.223667"/>
      </g>
     </g>
     <g id="text_12">
      <!-- 40 -->
      <g style="fill:#555555;" transform="translate(37.875 229.022886)scale(0.1 -0.1)">
       <use xlink:href="#DejaVuSans-34"/>
       <use x="63.623047" xlink:href="#DejaVuSans-30"/>
      </g>
     </g>
    </g>
    <g id="ytick_3">
     <g id="line2d_23">
      <path clip-path="url(#p2e962f99dc)" d="M 57.6 188.203456 
L 414.72 188.203456 
" style="fill:none;stroke:#ffffff;stroke-linecap:square;stroke-width:0.8;"/>
     </g>
     <g id="line2d_24">
      <g>
       <use style="fill:#555555;stroke:#555555;stroke-width:0.8;" x="57.6" xlink:href="#m8b730a768c" y="188.203456"/>
      </g>
     </g>
     <g id="text_13">
      <!-- 60 -->
      <g style="fill:#555555;" transform="translate(37.875 192.002675)scale(0.1 -0.1)">
       <use xlink:href="#DejaVuSans-36"/>
       <use x="63.623047" xlink:href="#DejaVuSans-30"/>
      </g>
     </g>
    </g>
    <g id="ytick_4">
     <g id="line2d_25">
      <path clip-path="url(#p2e962f99dc)" d="M 57.6 151.183246 
L 414.72 151.183246 
" style="fill:none;stroke:#ffffff;stroke-linecap:square;stroke-width:0.8;"/>
     </g>
     <g id="line2d_26">
      <g>
       <use style="fill:#555555;stroke:#555555;stroke-width:0.8;" x="57.6" xlink:href="#m8b730a768c" y="151.183246"/>
      </g>
     </g>
     <g id="text_14">
      <!-- 80 -->
      <defs>
       <path d="M 31.78125 34.625 
Q 24.75 34.625 20.71875 30.859375 
Q 16.703125 27.09375 16.703125 20.515625 
Q 16.703125 13.921875 20.71875 10.15625 
Q 24.75 6.390625 31.78125 6.390625 
Q 38.8125 6.390625 42.859375 10.171875 
Q 46.921875 13.96875 46.921875 20.515625 
Q 46.921875 27.09375 42.890625 30.859375 
Q 38.875 34.625 31.78125 34.625 
z
M 21.921875 38.8125 
Q 15.578125 40.375 12.03125 44.71875 
Q 8.5 49.078125 8.5 55.328125 
Q 8.5 64.0625 14.71875 69.140625 
Q 20.953125 74.21875 31.78125 74.21875 
Q 42.671875 74.21875 48.875 69.140625 
Q 55.078125 64.0625 55.078125 55.328125 
Q 55.078125 49.078125 51.53125 44.71875 
Q 48 40.375 41.703125 38.8125 
Q 48.828125 37.15625 52.796875 32.3125 
Q 56.78125 27.484375 56.78125 20.515625 
Q 56.78125 9.90625 50.3125 4.234375 
Q 43.84375 -1.421875 31.78125 -1.421875 
Q 19.734375 -1.421875 13.25 4.234375 
Q 6.78125 9.90625 6.78125 20.515625 
Q 6.78125 27.484375 10.78125 32.3125 
Q 14.796875 37.15625 21.921875 38.8125 
z
M 18.3125 54.390625 
Q 18.3125 48.734375 21.84375 45.5625 
Q 25.390625 42.390625 31.78125 42.390625 
Q 38.140625 42.390625 41.71875 45.5625 
Q 45.3125 48.734375 45.3125 54.390625 
Q 45.3125 60.0625 41.71875 63.234375 
Q 38.140625 66.40625 31.78125 66.40625 
Q 25.390625 66.40625 21.84375 63.234375 
Q 18.3125 60.0625 18.3125 54.390625 
z
" id="DejaVuSans-38"/>
      </defs>
      <g style="fill:#555555;" transform="translate(37.875 154.982464)scale(0.1 -0.1)">
       <use xlink:href="#DejaVuSans-38"/>
       <use x="63.623047" xlink:href="#DejaVuSans-30"/>
      </g>
     </g>
    </g>
    <g id="ytick_5">
     <g id="line2d_27">
      <path clip-path="url(#p2e962f99dc)" d="M 57.6 114.163035 
L 414.72 114.163035 
" style="fill:none;stroke:#ffffff;stroke-linecap:square;stroke-width:0.8;"/>
     </g>
     <g id="line2d_28">
      <g>
       <use style="fill:#555555;stroke:#555555;stroke-width:0.8;" x="57.6" xlink:href="#m8b730a768c" y="114.163035"/>
      </g>
     </g>
     <g id="text_15">
      <!-- 100 -->
      <g style="fill:#555555;" transform="translate(31.5125 117.962254)scale(0.1 -0.1)">
       <use xlink:href="#DejaVuSans-31"/>
       <use x="63.623047" xlink:href="#DejaVuSans-30"/>
       <use x="127.246094" xlink:href="#DejaVuSans-30"/>
      </g>
     </g>
    </g>
    <g id="ytick_6">
     <g id="line2d_29">
      <path clip-path="url(#p2e962f99dc)" d="M 57.6 77.142824 
L 414.72 77.142824 
" style="fill:none;stroke:#ffffff;stroke-linecap:square;stroke-width:0.8;"/>
     </g>
     <g id="line2d_30">
      <g>
       <use style="fill:#555555;stroke:#555555;stroke-width:0.8;" x="57.6" xlink:href="#m8b730a768c" y="77.142824"/>
      </g>
     </g>
     <g id="text_16">
      <!-- 120 -->
      <g style="fill:#555555;" transform="translate(31.5125 80.942043)scale(0.1 -0.1)">
       <use xlink:href="#DejaVuSans-31"/>
       <use x="63.623047" xlink:href="#DejaVuSans-32"/>
       <use x="127.246094" xlink:href="#DejaVuSans-30"/>
      </g>
     </g>
    </g>
   </g>
   <g id="line2d_31">
    <path clip-path="url(#p2e962f99dc)" d="M 57.6 221.429097 
L 58.235068 231.646676 
L 58.446758 238.902633 
L 58.658447 241.197886 
L 58.870136 238.27329 
L 59.081826 238.365838 
L 59.928583 240.994277 
L 60.140273 246.140084 
L 60.351962 246.41774 
L 60.563651 245.788396 
L 61.622098 251.008244 
L 61.833788 249.286804 
L 62.045477 250.119761 
L 63.103924 248.065137 
L 63.315614 248.083647 
L 63.527303 246.491778 
L 64.162371 243.807815 
L 64.37406 240.883214 
L 64.58575 240.179832 
L 64.797439 240.642585 
L 65.009129 239.272837 
L 65.644197 238.439881 
L 66.067576 239.180288 
L 66.279265 240.105794 
L 66.490954 240.179832 
L 67.337712 242.049353 
L 68.819538 239.235817 
L 69.242916 242.438063 
L 69.454606 241.80872 
L 70.089674 242.808267 
L 70.301363 246.547309 
L 70.513053 246.861982 
L 70.724742 244.825869 
L 70.936432 245.584783 
L 71.5715 247.213671 
L 71.783189 245.917965 
L 72.206568 247.898546 
L 72.418257 256.339152 
L 73.053325 254.839836 
L 73.265015 256.005971 
L 73.476704 259.467362 
L 73.900083 261.577512 
L 74.535151 259.670975 
L 74.746841 258.171653 
L 74.95853 260.929662 
L 75.170219 260.85562 
L 75.381909 259.633953 
L 76.016977 258.264205 
L 76.440356 261.059233 
L 76.652045 261.429431 
L 76.863734 262.225368 
L 77.498803 264.00234 
L 77.710492 263.021302 
L 77.922181 263.428523 
L 78.133871 263.169383 
L 78.34556 263.132363 
L 78.980628 263.187893 
L 79.192318 263.909787 
L 79.404007 263.502565 
L 79.615697 263.595116 
L 79.827386 264.687212 
L 80.674143 265.797818 
L 80.885833 265.446126 
L 81.309212 263.909787 
L 81.94428 263.98383 
L 82.155969 264.242969 
L 82.367659 260.83711 
L 82.791037 260.152238 
L 83.426106 257.30168 
L 83.637795 259.282261 
L 83.849484 258.560367 
L 84.061174 256.653826 
L 84.272863 256.746378 
L 85.119621 260.022663 
L 85.33131 261.966226 
L 85.542999 260.411378 
L 85.754689 261.188802 
L 86.389757 258.393776 
L 86.601446 258.393776 
L 86.813136 257.986556 
L 87.024825 257.949533 
L 87.236515 259.485872 
L 87.871583 261.503474 
L 88.083272 261.521986 
L 88.294961 262.373449 
L 88.506651 262.466001 
L 88.71834 262.706631 
L 89.565098 262.836201 
L 89.776787 263.169383 
L 89.988477 262.799179 
L 90.200166 264.094888 
L 91.046924 263.632136 
L 91.258613 254.599206 
L 91.681992 257.801453 
L 92.740439 260.726049 
L 93.163817 259.911605 
L 93.798886 260.207766 
L 94.010575 259.948625 
L 94.645643 262.31792 
L 95.280711 263.817237 
L 95.70409 262.058777 
L 95.915779 257.912513 
L 96.127469 258.079104 
L 96.762537 254.913878 
L 96.974226 257.190619 
L 97.185916 256.283626 
L 97.609295 253.76625 
L 98.244363 253.099884 
L 98.456052 251.063772 
L 98.667742 251.248873 
L 99.09112 248.805541 
L 99.726189 247.435794 
L 99.937878 249.175745 
L 100.149567 247.898546 
L 100.361257 248.028117 
L 100.572946 249.157233 
L 101.208014 248.972132 
L 101.419704 247.306223 
L 101.631393 247.435794 
L 101.843082 248.194708 
L 102.054772 247.102612 
L 102.68984 249.712537 
L 102.901529 249.360846 
L 103.113219 247.750465 
L 103.324908 248.379809 
L 103.536598 249.916148 
L 104.171666 250.212309 
L 104.595044 249.231272 
L 104.806734 250.119761 
L 105.018423 252.10034 
L 105.653491 250.767611 
L 106.28856 247.657917 
L 106.500249 247.417284 
L 107.135317 246.158595 
L 107.347007 244.640768 
L 107.558696 244.344606 
L 107.982075 241.364477 
L 108.617143 239.883667 
L 108.828832 242.549128 
L 109.040522 243.345062 
L 109.252211 243.585692 
L 109.4639 243.159961 
L 110.310658 244.196525 
L 110.522347 241.697661 
L 111.580794 240.253875 
L 111.792484 240.031751 
L 112.004173 241.919782 
L 112.215862 245.307132 
L 112.427552 241.864252 
L 113.274309 246.954531 
L 113.697688 245.38117 
L 113.909378 245.788396 
L 114.544446 246.306675 
L 114.756135 248.046627 
L 114.967825 248.620439 
L 115.391203 246.473268 
L 116.237961 247.010061 
L 116.44965 245.732864 
L 116.873029 248.139176 
L 117.508097 248.990642 
L 117.719787 248.620439 
L 117.931476 248.657461 
L 118.143165 249.582966 
L 119.413302 247.250693 
L 119.624991 248.231728 
L 119.83668 246.639859 
L 120.471749 247.417284 
L 120.683438 247.250693 
L 121.106817 249.101703 
L 121.318506 249.231272 
L 121.953574 250.452939 
L 122.376953 249.879128 
L 122.588643 251.767158 
L 122.800332 251.508019 
L 123.4354 251.600567 
L 123.64709 252.840744 
L 123.858779 252.988825 
L 124.070468 250.971224 
L 124.917226 251.82269 
L 125.340605 251.452487 
L 125.552294 249.990186 
L 125.763983 249.545944 
L 126.399052 248.93511 
L 126.610741 250.064229 
L 127.245809 247.435794 
L 128.304256 249.934658 
L 128.515945 249.619986 
L 128.727635 251.841197 
L 129.362703 251.489509 
L 129.574392 250.730594 
L 129.786082 251.267385 
L 129.997771 251.008244 
L 130.209461 250.027208 
L 130.844529 248.990642 
L 131.056218 249.046175 
L 131.267908 247.713445 
L 131.479597 247.417284 
L 131.691286 245.510741 
L 132.326354 246.82496 
L 132.749733 249.508927 
L 132.961423 249.138723 
L 133.173112 249.027665 
L 133.80818 250.027208 
L 134.01987 249.490417 
L 134.231559 249.434885 
L 134.443248 250.24933 
L 135.290006 250.804633 
L 135.713385 251.785668 
L 135.925074 253.359029 
L 136.136763 253.044357 
L 136.983521 253.840288 
L 137.19521 255.228546 
L 137.618589 253.673701 
L 138.253657 254.340063 
L 138.888726 256.709356 
L 139.100415 256.635314 
L 139.735483 254.728777 
L 139.947172 254.784304 
L 140.158862 254.543674 
L 140.370551 255.358121 
L 140.582241 255.654282 
L 141.852377 254.321551 
L 142.064066 253.74774 
L 142.699135 254.932384 
L 142.910824 254.580696 
L 143.122513 253.89582 
L 143.334203 254.395593 
L 143.545892 253.581149 
L 144.18096 253.044357 
L 144.39265 253.544127 
L 144.604339 254.432615 
L 145.027718 253.636679 
L 145.662786 253.969863 
L 146.297854 251.211857 
L 146.509544 251.619077 
L 147.144612 251.267385 
L 147.356301 250.415922 
L 147.567991 250.452939 
L 147.77968 249.749557 
L 147.991369 251.470997 
L 148.838127 250.952714 
L 149.049816 250.545491 
L 149.261506 237.181193 
L 149.473195 236.755463 
L 150.108263 236.20016 
L 150.531642 228.999731 
L 150.743331 230.221397 
L 150.955021 229.555032 
L 151.590089 228.129754 
L 151.801778 226.871065 
L 152.013468 227.79657 
L 152.225157 226.834044 
L 152.436846 227.833592 
L 153.071915 228.555484 
L 153.283604 228.481442 
L 153.495293 231.091367 
L 153.706983 231.961344 
L 153.918672 230.832227 
L 154.55374 229.980764 
L 154.76543 228.277838 
L 155.188809 228.240816 
L 156.035566 223.557754 
L 156.247255 223.96498 
L 156.458945 225.297709 
L 156.882324 221.484626 
L 157.729081 221.817808 
L 157.940771 221.50314 
L 158.15246 221.910356 
L 158.364149 219.504045 
L 158.999218 217.153259 
L 159.210907 217.375379 
L 159.422596 218.948743 
L 159.634286 214.987581 
L 159.845975 215.894572 
L 160.481043 216.24627 
L 160.692733 220.596141 
L 160.904422 216.264776 
L 161.327801 213.525281 
L 161.962869 211.748312 
L 162.386248 208.13884 
L 162.597937 206.695055 
L 162.809627 206.176767 
L 163.444695 206.454422 
L 163.656384 206.76909 
L 163.868074 206.472929 
L 164.079763 205.843585 
L 164.291452 207.139294 
L 164.92652 205.362324 
L 165.13821 205.602959 
L 165.349899 211.563208 
L 165.561589 210.656216 
L 165.773278 208.23139 
L 166.408346 209.841768 
L 166.620036 206.732068 
L 166.831725 206.63952 
L 167.043414 204.640432 
L 167.255104 198.976338 
L 167.890172 198.050832 
L 168.101861 198.698682 
L 168.313551 203.474293 
L 168.736929 200.827348 
L 169.583687 205.362324 
L 169.795376 206.713562 
L 170.007066 211.970432 
L 170.218755 205.140207 
L 170.853823 207.8797 
L 171.065513 210.804293 
L 171.277202 206.232303 
L 171.700581 210.767273 
L 172.335649 212.192551 
L 172.547338 214.117604 
L 172.759028 213.691872 
L 172.970717 209.119874 
L 173.182407 208.360959 
L 173.817475 209.545606 
L 174.029164 213.636345 
L 174.452543 212.2851 
L 174.664232 212.192551 
L 175.299301 213.451238 
L 175.51099 216.597958 
L 175.722679 214.173132 
L 176.146058 212.729346 
L 176.781126 212.451691 
L 176.992816 212.729346 
L 177.204505 213.266141 
L 177.627884 208.601593 
L 178.262952 210.248992 
L 178.474641 209.230938 
L 178.686331 205.695508 
L 179.744778 200.697778 
L 179.956467 197.902755 
L 180.168156 197.717649 
L 180.379846 198.698682 
L 180.591535 197.58808 
L 181.226603 196.533004 
L 181.438293 191.405705 
L 181.861672 191.313154 
L 182.920119 199.0874 
L 183.555187 197.421489 
L 184.190255 198.532099 
L 184.401944 192.460779 
L 184.613634 192.645885 
L 184.825323 190.702317 
L 185.037012 193.515855 
L 185.672081 192.072068 
L 185.88377 194.756036 
L 186.095459 191.942498 
L 186.307149 193.275229 
L 186.518838 193.201187 
L 187.365596 194.496896 
L 187.577285 190.332122 
L 187.788975 194.922627 
L 188.000664 195.329843 
L 188.847421 199.272499 
L 189.059111 198.180401 
L 189.2708 184.279316 
L 189.48249 187.33348 
L 190.117558 182.594896 
L 190.329247 184.408887 
L 190.540937 183.131684 
L 190.752626 185.500983 
L 191.599384 180.244106 
L 191.811073 181.262167 
L 192.022762 179.096488 
L 192.234452 180.466232 
L 192.446141 174.320877 
L 193.292899 175.35744 
L 193.504588 175.153827 
L 193.716277 173.895139 
L 193.927967 170.267161 
L 194.563035 172.025628 
L 194.774724 167.934897 
L 195.198103 170.915025 
L 195.409793 170.674385 
L 196.044861 175.320425 
L 196.679929 166.213457 
L 196.891618 167.694256 
L 197.526686 168.268078 
L 197.738376 165.065825 
L 197.950065 169.952491 
L 198.161755 167.305546 
L 198.373444 172.488381 
L 199.008512 173.06219 
L 199.431891 171.229693 
L 199.64358 173.376858 
L 199.85527 174.265349 
L 200.490338 174.894687 
L 200.702027 179.152017 
L 200.913717 179.42967 
L 201.125406 187.259445 
L 201.337095 185.723102 
L 201.972164 186.75967 
L 202.183853 187.351993 
L 202.395542 182.261714 
L 202.607232 183.483381 
L 202.818921 188.314519 
L 203.453989 195.792596 
L 203.877368 188.888328 
L 204.089057 182.50234 
L 204.300747 192.645885 
L 204.935815 188.036865 
L 205.147504 189.517672 
L 205.359194 188.592167 
L 205.570883 189.499166 
L 206.417641 189.203004 
L 206.62933 183.298275 
L 206.84102 181.817468 
L 207.052709 181.539822 
L 207.264398 188.258985 
L 207.899467 191.812929 
L 208.111156 195.440908 
L 208.322845 192.682898 
L 208.534535 187.407522 
L 208.746224 185.797145 
L 209.381292 188.814294 
L 209.592982 186.389466 
L 210.01636 193.330756 
L 210.22805 194.034143 
L 210.863118 191.942498 
L 211.074807 188.8328 
L 211.286497 189.073433 
L 211.498186 189.573208 
L 211.709876 191.331662 
L 212.344944 192.10909 
L 212.556633 189.128962 
L 212.768322 190.86891 
L 212.980012 186.463508 
L 213.191701 187.444542 
L 214.038459 185.204821 
L 214.250148 181.928533 
L 214.461838 181.095576 
L 214.673527 180.891963 
L 215.308595 182.224692 
L 215.520285 183.353811 
L 215.731974 183.668479 
L 215.943663 181.428758 
L 216.790421 183.761027 
L 217.00211 181.669391 
L 217.2138 178.35608 
L 217.425489 177.375048 
L 217.637178 179.503712 
L 218.272247 180.503245 
L 218.483936 180.614317 
L 218.695625 179.892423 
L 218.907315 178.096941 
L 219.119004 179.947951 
L 219.754072 180.207091 
L 219.965762 178.282038 
L 220.177451 177.874814 
L 220.38914 173.395372 
L 220.60083 174.672573 
L 221.235898 174.39492 
L 221.447587 174.172793 
L 221.659277 173.32133 
L 221.870966 175.505522 
L 222.717724 176.542084 
L 223.141103 181.89151 
L 223.352792 182.07661 
L 223.564481 178.430123 
L 224.411239 173.469414 
L 225.046307 175.616579 
L 225.893065 170.13759 
L 226.104754 170.174617 
L 226.316443 158.66133 
L 226.528133 160.456812 
L 227.163201 160.12363 
L 227.798269 162.289309 
L 228.009959 165.584106 
L 228.645027 165.324964 
L 228.856716 163.770123 
L 229.068405 165.954315 
L 229.280095 164.140319 
L 229.491784 163.399911 
L 230.126852 163.288856 
L 230.338542 163.973736 
L 230.550231 163.918193 
L 230.761921 162.344837 
L 230.97361 161.696985 
L 231.608678 162.289309 
L 231.820368 160.789994 
L 232.032057 160.493827 
L 232.243746 160.586383 
L 232.455436 161.659973 
L 233.090504 160.549355 
L 233.302193 160.438298 
L 233.513883 159.938531 
L 233.725572 162.289309 
L 233.937261 161.734 
L 234.784019 160.419785 
L 234.995708 156.477138 
L 235.207398 158.790901 
L 235.419087 158.40219 
L 236.265845 155.644188 
L 236.477534 157.624768 
L 236.900913 154.848252 
L 237.535981 156.458622 
L 237.74767 163.177799 
L 237.95936 158.66133 
L 238.382739 155.995869 
L 239.017807 156.736277 
L 239.229496 157.976451 
L 239.441186 154.700169 
L 239.652875 153.774664 
L 239.864564 155.644188 
L 240.499632 154.66314 
L 240.711322 152.386406 
L 240.923011 153.44148 
L 241.134701 157.532212 
L 241.34639 155.329506 
L 242.193148 156.643721 
L 242.404837 158.254106 
L 242.616526 156.217996 
L 242.828216 159.34621 
L 243.463284 163.714581 
L 243.674973 162.289309 
L 243.886663 166.56514 
L 244.098352 168.231051 
L 244.310041 161.863571 
L 244.94511 159.327696 
L 245.368488 153.367438 
L 245.791867 150.813049 
L 246.426935 149.813502 
L 246.638625 150.850064 
L 246.850314 159.605349 
L 247.062004 160.345742 
L 247.273693 160.567869 
L 247.908761 159.568322 
L 248.120451 161.863571 
L 248.33214 157.643269 
L 248.543829 160.641911 
L 248.755519 159.716406 
L 249.390587 159.771933 
L 249.602276 160.530854 
L 249.813966 161.771028 
L 250.025655 160.919565 
L 250.237344 161.789542 
L 250.872413 160.660425 
L 251.295791 162.270795 
L 251.507481 164.510516 
L 251.71917 161.363804 
L 252.354238 163.140772 
L 252.565928 161.900599 
L 253.200996 155.496104 
L 253.836064 156.255011 
L 254.047753 159.827461 
L 254.259443 159.73492 
L 254.471132 160.752966 
L 254.682822 158.957484 
L 255.31789 158.254106 
L 255.529579 160.068102 
L 255.741269 157.384127 
L 255.952958 157.624768 
L 256.164647 156.440108 
L 256.799715 154.033804 
L 257.223094 160.419785 
L 257.646473 153.497009 
L 258.281541 151.035161 
L 258.493231 147.44421 
L 258.70492 149.276707 
L 259.128299 149.29522 
L 259.763367 150.276254 
L 260.186746 152.034709 
L 260.610124 153.811677 
L 261.245193 154.922281 
L 261.668571 157.180516 
L 261.880261 157.217544 
L 262.09195 154.51507 
L 262.727018 155.181436 
L 263.150397 157.809867 
L 263.362087 157.84688 
L 263.573776 162.215267 
L 264.632223 158.291119 
L 265.055602 155.533117 
L 265.69067 154.922281 
L 265.902359 157.273072 
L 266.114049 156.921375 
L 266.325738 157.013933 
L 266.537427 154.885267 
L 267.595874 160.271715 
L 267.807564 159.124083 
L 268.019253 159.179611 
L 268.654321 162.196753 
L 268.866011 160.715954 
L 269.0777 160.271715 
L 269.289389 156.995417 
L 269.501079 157.735825 
L 270.347836 159.88299 
L 270.559526 158.698345 
L 270.771215 156.754791 
L 270.982905 152.016195 
L 271.617973 151.257288 
L 271.829662 153.959761 
L 272.041352 153.959761 
L 272.46473 149.924558 
L 273.099798 153.034256 
L 273.311488 151.905138 
L 273.523177 152.478947 
L 273.734867 148.906497 
L 273.946556 149.517332 
L 274.581624 151.775569 
L 275.005003 155.255463 
L 275.216692 154.700169 
L 275.428382 153.774664 
L 276.06345 154.959309 
L 276.275139 154.218901 
L 276.486829 152.571504 
L 276.910207 144.908322 
L 277.545276 143.927288 
L 277.968654 141.002688 
L 278.180344 146.148495 
L 278.392033 144.926836 
L 279.027101 144.130899 
L 279.238791 145.815311 
L 279.66217 147.018472 
L 280.508927 149.702432 
L 280.720616 146.278064 
L 280.932306 146.315093 
L 281.143995 146.555719 
L 281.355685 147.092514 
L 281.990753 147.610795 
L 282.202442 145.315546 
L 282.414132 144.612153 
L 282.83751 148.443744 
L 283.472579 148.332688 
L 283.684268 143.779203 
L 283.895957 143.18688 
L 284.107647 143.594106 
L 284.319336 146.055952 
L 284.954404 147.72185 
L 285.166094 147.795893 
L 285.377783 151.164732 
L 285.589472 151.164732 
L 285.801162 152.590017 
L 286.43623 152.423419 
L 286.859609 154.940795 
L 287.071298 154.885267 
L 287.282988 152.849159 
L 287.918056 153.996776 
L 288.129745 155.125893 
L 288.341434 155.403548 
L 288.553124 153.145313 
L 288.764813 148.573313 
L 289.399881 150.572408 
L 289.611571 148.869482 
L 289.82326 150.313269 
L 290.03495 150.83155 
L 290.246639 150.535396 
L 291.093397 150.387311 
L 291.305086 151.923654 
L 291.516775 150.720493 
L 291.728465 151.275802 
L 292.363533 152.478947 
L 292.575222 151.627484 
L 292.998601 147.222085 
L 293.21029 147.72185 
L 293.845359 147.814406 
L 294.057048 150.072643 
L 294.268737 149.646903 
L 294.480427 146.907415 
L 294.692116 148.647356 
L 295.327184 150.165184 
L 295.538874 149.665417 
L 295.750563 147.925463 
L 295.962253 148.14759 
L 296.173942 145.944882 
L 296.80901 144.871292 
L 297.020699 142.002235 
L 297.444078 134.042884 
L 297.655768 136.153035 
L 298.290836 138.948064 
L 298.502525 138.96658 
L 298.714215 138.65191 
L 298.925904 137.485764 
L 299.772662 139.170191 
L 299.984351 136.745358 
L 300.19604 139.540387 
L 301.254487 135.153487 
L 301.466177 131.821677 
L 301.677866 132.67314 
L 301.889555 132.154859 
L 302.101245 127.953058 
L 302.736313 121.844732 
L 302.948002 116.106601 
L 303.159692 120.197333 
L 303.371381 119.790109 
L 303.583071 119.068216 
L 304.218139 120.493487 
L 304.429828 123.714257 
L 304.641517 120.974754 
L 304.853207 123.584671 
L 305.064896 123.510644 
L 305.699964 126.139075 
L 305.911654 125.657808 
L 306.335033 119.382885 
L 306.546722 122.714709 
L 307.18179 122.1594 
L 307.605169 127.675417 
L 307.816858 125.176542 
L 308.028548 126.120561 
L 308.663616 124.491677 
L 308.875305 125.121014 
L 309.086995 124.102967 
L 309.298684 126.120561 
L 309.510373 137.263652 
L 310.145442 156.680749 
L 310.357131 138.318728 
L 310.56882 140.169738 
L 310.78051 134.339053 
L 310.992199 132.895267 
L 311.627267 131.562538 
L 311.838957 138.503827 
L 312.262336 133.117379 
L 312.474025 137.855975 
L 313.320782 133.24695 
L 313.532472 131.229354 
L 313.744161 132.54357 
L 313.955851 129.563443 
L 314.590919 128.39731 
L 314.802608 128.28624 
L 315.225987 126.435229 
L 315.437676 126.749912 
L 316.072745 124.121466 
L 316.284434 125.694836 
L 316.707813 127.009052 
L 316.919502 121.955787 
L 317.55457 128.823035 
L 317.76626 134.339053 
L 317.977949 135.560713 
L 318.189638 132.580584 
L 318.401328 134.709248 
L 319.248085 125.121014 
L 319.671464 129.174732 
L 319.883154 127.305206 
L 320.518222 126.527785 
L 320.9416 125.121014 
L 321.364979 121.233895 
L 322.000047 119.382885 
L 322.211737 116.513813 
L 322.423426 119.031187 
L 322.635116 118.253766 
L 322.846805 110.627597 
L 323.481873 110.090817 
L 323.905252 106.94409 
L 324.116941 106.833035 
L 324.328631 105.814974 
L 324.963699 110.979295 
L 325.175388 108.202779 
L 325.387078 108.258308 
L 325.598767 97.874137 
L 325.810456 99.280908 
L 326.445525 101.205961 
L 326.657214 103.131014 
L 326.868903 98.855183 
L 327.080593 98.46646 
L 327.292282 99.891745 
L 327.92735 108.01768 
L 328.562418 100.539595 
L 328.774108 101.50213 
L 329.409176 100.854265 
L 329.620865 103.056972 
L 329.832555 102.446134 
L 330.255934 103.464196 
L 330.891002 103.353141 
L 331.102691 105.22265 
L 331.314381 101.205961 
L 331.52607 102.557204 
L 331.737759 105.259678 
L 332.372828 102.168481 
L 332.584517 106.758993 
L 332.796206 102.72379 
L 333.219585 106.481337 
L 333.854653 109.924219 
L 334.066343 104.352673 
L 334.278032 104.223103 
L 334.489721 100.29897 
L 334.701411 102.908887 
L 335.336479 105.074566 
L 335.548168 104.500758 
L 335.759858 103.260585 
L 335.971547 105.389249 
L 336.818305 104.870968 
L 337.029994 102.279551 
L 337.241683 101.205961 
L 338.30013 110.55357 
L 338.51182 108.813616 
L 338.723509 112.071399 
L 339.781956 118.031639 
L 340.205335 113.089445 
L 340.417024 121.844732 
L 340.628714 125.306113 
L 341.475471 120.586043 
L 341.687161 127.434777 
L 342.110539 120.808155 
L 342.745608 116.532326 
L 342.957297 118.309295 
L 343.168986 118.253766 
L 343.380676 100.835765 
L 343.592365 97.522454 
L 344.227433 91.451141 
L 344.439123 86.768073 
L 344.650812 85.898109 
L 345.074191 96.559921 
L 345.920948 119.456927 
L 346.132638 111.293963 
L 346.344327 114.903443 
L 346.556017 107.240259 
L 347.402774 107.129189 
L 347.614464 110.423999 
L 347.826153 103.427168 
L 348.037842 109.442952 
L 348.8846 101.483616 
L 349.096289 106.370282 
L 349.519668 98.059249 
L 350.154736 100.095358 
L 350.366426 99.669619 
L 350.578115 96.245253 
L 350.789804 95.190177 
L 351.001494 95.560373 
L 351.636562 99.22538 
L 351.848251 105.315206 
L 352.27163 99.521534 
L 352.48332 98.46646 
L 353.118388 96.985659 
L 353.330077 97.300327 
L 353.753456 91.673253 
L 353.965145 92.765357 
L 354.600213 92.580245 
L 354.811903 93.135553 
L 355.023592 91.932395 
L 355.235282 91.710283 
L 356.082039 89.507574 
L 356.293729 88.563555 
L 356.505418 83.195623 
L 356.717107 86.953185 
L 356.928797 88.71164 
L 357.563865 88.119317 
L 357.775554 91.747295 
L 357.987244 91.080932 
L 358.198933 88.637598 
L 358.410622 87.786135 
L 359.25738 96.874604 
L 359.469069 91.52517 
L 359.680759 94.505297 
L 359.892448 94.190629 
L 360.527516 96.134196 
L 360.950895 91.154974 
L 361.162584 90.932847 
L 361.374274 93.413209 
L 362.009342 95.893555 
L 362.221031 94.745938 
L 362.432721 99.466007 
L 362.64441 77.920245 
L 362.8561 83.029038 
L 363.491168 81.159513 
L 363.702857 81.733336 
L 363.914547 83.417748 
L 364.126236 80.770803 
L 364.337925 82.399687 
L 364.972993 77.994287 
L 365.184683 77.846203 
L 365.396372 76.383902 
L 365.608062 77.179839 
L 365.819751 76.439446 
L 366.454819 78.290456 
L 366.666509 79.327017 
L 366.878198 83.066052 
L 367.089887 82.6033 
L 367.301577 82.769898 
L 367.936645 81.918435 
L 368.148334 84.102627 
L 368.360024 80.604219 
L 368.571713 80.400606 
L 368.783402 77.957272 
L 369.63016 78.142372 
L 369.841849 79.91934 
L 370.265228 79.030849 
L 370.900296 79.697213 
L 371.111986 78.549596 
L 371.323675 81.289084 
L 371.535365 80.604219 
L 371.747054 81.696308 
L 372.593811 88.119317 
L 372.805501 85.842568 
L 373.01719 88.489513 
L 373.22888 87.471467 
L 373.863948 88.674625 
L 374.287327 87.045727 
L 374.499016 87.564008 
L 374.710705 93.783405 
L 375.345774 92.746843 
L 375.557463 94.486798 
L 375.769152 89.415018 
L 375.980842 87.008714 
L 376.192531 87.878691 
L 377.039289 88.359944 
L 377.250978 89.433532 
L 377.462667 83.380735 
L 377.674357 83.750932 
L 378.309425 81.38164 
L 378.521114 79.678714 
L 378.732804 80.122953 
L 378.944493 81.77035 
L 379.156183 81.326112 
L 379.791251 82.103532 
L 380.426319 73.588888 
L 380.638008 77.327921 
L 381.696455 72.663382 
L 381.908145 63.22323 
L 382.119834 68.535621 
L 382.754902 70.016437 
L 382.966592 69.627725 
L 383.178281 71.423209 
L 383.38997 71.700849 
L 383.60166 67.924786 
L 384.448417 67.258435 
L 384.660107 67.758201 
L 384.871796 67.517575 
L 385.083485 68.44308 
L 385.718554 68.054355 
L 385.930243 70.664287 
L 386.141932 70.368118 
L 386.353622 69.720268 
L 386.565311 70.47919 
L 387.200379 70.978955 
L 387.412069 68.794763 
L 387.623758 68.868805 
L 387.835448 71.367666 
L 388.047137 69.646226 
L 388.682205 69.090932 
L 388.893894 64.926158 
L 389.105584 66.777169 
L 389.528963 64.463406 
L 390.37572 64.796587 
L 390.58741 58.558691 
L 390.799099 56.929793 
L 391.645857 66.110803 
L 391.857546 62.279211 
L 392.069235 64.389363 
L 392.280925 62.371754 
L 392.492614 61.964543 
L 393.127682 58.799302 
L 393.339372 61.131594 
L 393.551061 60.243089 
L 393.76275 57.707213 
L 393.97444 63.149188 
L 394.609508 63.500871 
L 394.821197 63.056632 
L 395.032887 60.095004 
L 395.244576 60.15056 
L 395.456266 62.279211 
L 396.091334 61.631347 
L 396.303023 60.169061 
L 396.514713 61.871987 
L 396.726402 61.538818 
L 396.938091 60.409702 
L 397.573159 59.225055 
L 397.784849 58.206994 
L 398.208228 61.946015 
L 398.419917 61.427735 
L 399.054985 61.964543 
L 399.266675 61.076066 
L 399.478364 60.964983 
L 399.690053 58.503135 
L 399.901743 59.039943 
L 400.7485 52.154182 
L 400.96019 55.597063 
L 401.171879 55.411951 
L 401.383568 57.707213 
L 402.018637 54.912197 
L 402.230326 56.022786 
L 402.442015 58.206994 
L 402.653705 73.440803 
L 402.865394 77.901746 
L 403.500462 71.904461 
L 403.923841 74.366308 
L 404.135531 69.868353 
L 404.34722 78.012801 
L 404.982288 78.753209 
L 405.405667 87.360397 
L 405.829046 80.122953 
L 406.464114 80.474649 
L 406.675803 72.700395 
L 406.887493 74.866076 
L 407.310871 75.2733 
L 407.94594 76.920697 
L 408.157629 76.087748 
L 408.369318 76.550501 
L 408.581008 80.141467 
L 408.792697 86.194264 
L 409.427765 84.639422 
L 409.639455 81.418655 
L 409.851144 82.695856 
L 410.274523 78.58661 
L 410.909591 78.58661 
L 411.12128 81.103985 
L 411.33297 77.142824 
L 411.544659 76.99474 
L 411.756349 75.476911 
L 412.603106 78.068329 
L 412.814795 79.141919 
L 413.026485 79.252974 
L 413.238174 82.695856 
L 414.084932 82.769898 
L 414.296621 80.493149 
L 414.508311 82.695856 
L 414.72 83.436264 
L 414.72 83.436264 
" style="fill:none;stroke:#e24a33;stroke-linecap:square;stroke-width:1.5;"/>
   </g>
   <g id="patch_3">
    <path d="M 57.6 276.48 
L 57.6 41.472 
" style="fill:none;stroke:#ffffff;stroke-linecap:square;stroke-linejoin:miter;"/>
   </g>
   <g id="patch_4">
    <path d="M 414.72 276.48 
L 414.72 41.472 
" style="fill:none;stroke:#ffffff;stroke-linecap:square;stroke-linejoin:miter;"/>
   </g>
   <g id="patch_5">
    <path d="M 57.6 276.48 
L 414.72 276.48 
" style="fill:none;stroke:#ffffff;stroke-linecap:square;stroke-linejoin:miter;"/>
   </g>
   <g id="patch_6">
    <path d="M 57.6 41.472 
L 414.72 41.472 
" style="fill:none;stroke:#ffffff;stroke-linecap:square;stroke-linejoin:miter;"/>
   </g>
  </g>
 </g>
 <defs>
  <clipPath id="p2e962f99dc">
   <rect height="235.008" width="357.12" x="57.6" y="41.472"/>
  </clipPath>
 </defs>
</svg>
